<svg xmlns="http://www.w3.org/2000/svg" viewBox="-50 -100 600 500"><defs><style>.cls-1{fill:#2c6e49;}.cls-2{fill:#e55381;}.cls-3{fill:none;}.cls-3,.cls-4,.cls-5{stroke:#000;stroke-miterlimit:10;}.cls-4,.cls-5{fill:#5b2b0a;}.cls-4{stroke-width:0.5px;}.cls-5{stroke-width:0.24px;}</style></defs><title>Asset 10</title><g id="Layer_2" data-name="Layer 2"><g id="Layer_1-2" data-name="Layer 1"><path class="cls-1" d="M50.57,336C51,325.68,53.89,261.54,63,251.86,62.92,259.55,62,316.69,50.57,336Z"/><path d="M62.61,252.91c-.14,10.57-1.34,61.89-11.61,81.53.59-13.67,3.48-70.24,11.61-81.53m.77-1.91c-10.63,8.19-13.24,86.38-13.24,86.38C63.29,317.82,63.38,251,63.38,251Z"/><path class="cls-2" d="M54.4,161.59s21.32-25.54,21-40.4-8.72-4.49-8.72-4.49Z"/><path class="cls-2" d="M53.09,161.62S69,132.37,65.68,117.88s-9.43-2.69-9.43-2.69Z"/><path class="cls-2" d="M52.77,161.62s10.76-31.47,5.11-45.22-9.74-1.08-9.74-1.08Z"/><path class="cls-2" d="M53.62,161.6s26.3-20.36,29.15-34.95-7.54-6.26-7.54-6.26Z"/><path class="cls-2" d="M54.66,161.58S75.88,136,75.48,121.11s-8.73-4.46-8.73-4.46Z"/><path class="cls-2" d="M54.21,161.59S70.87,132.79,68,118.21s-9.35-2.94-9.35-2.94Z"/><path class="cls-2" d="M53.5,161.61s3.09-33.12-5.62-45.17-9.72,1.24-9.72,1.24Z"/><path class="cls-2" d="M53.11,161.62s-20.83-25.94-20.2-40.79,8.8-4.33,8.8-4.33Z"/><path class="cls-2" d="M53.09,161.62s-25.53-21.33-27.84-36,7.77-6,7.77-6Z"/><path class="cls-2" d="M52.93,161.62s.87-33.25-8.63-44.69-9.62,1.88-9.62,1.88Z"/><path class="cls-2" d="M53.76,161.6s-6.95-32.53-18.85-41.43S26,124.26,26,124.26Z"/><path class="cls-2" d="M53.07,161.62s-27.62-18.54-31.45-32.9,7.1-6.76,7.1-6.76Z"/><path class="cls-2" d="M54.59,160S23.86,147.29,17.27,134s5.63-8,5.63-8Z"/><path d="M81.69,113.88a1.28,1.28,0,0,1,1.07.46c.51.6,1.23,2.41.33,7.74-2,12-18.24,28.35-25.7,35.36l19.54-41.15c.92-.78,3.18-2.41,4.76-2.41m0-1c-2.43,0-5.57,2.79-5.57,2.79L54.31,161.59s27-23.27,29.76-39.35c1.25-7.36-.31-9.36-2.38-9.36Z"/><path d="M63.7,106.91c.65,0,2.29.7,3.47,7.17,2.16,11.85-7.48,33.14-12.12,42.46l4.37-45.44c.82-1.47,2.78-4.19,4.28-4.19m0-1c-2.66,0-5.26,4.89-5.26,4.89l-4.88,50.8s17.5-31.77,14.59-47.7c-1.11-6.1-2.79-8-4.45-8Z"/><path d="M88.46,117.44c.56,0,.71.22.78.32.32.47.82,2.23-1.56,8.27-4.56,11.57-21.33,25.21-29.58,31.41l26.23-38.3c.83-.55,2.81-1.7,4.13-1.7m0-1c-2,0-4.85,2-4.85,2L54,161.64s28.33-19.32,34.6-35.24c3.14-8,1.89-10-.15-10Z"/><path d="M74.58,109.76a1.22,1.22,0,0,1,.9.39c.56.56,1.48,2.27,1.45,7.43-.07,12.11-13.41,31.1-19.65,39.33L69.91,113c1.11-1.33,3.24-3.27,4.67-3.27m0-1c-2.53,0-5.57,3.79-5.57,3.79l-14.12,49s23-27.71,23-44c0-6.83-1.52-8.82-3.35-8.82Z"/><path d="M52.26,106.12c.61,0,2.29.59,4.68,6.09,4.75,11,.06,34-2.39,44.11l-5.85-45c.53-1.8,2-5.16,3.56-5.16m0-1c-2.94,0-4.57,6.09-4.57,6.09l6.53,50.38s10-35.07,3.64-49.78c-2.19-5-4.07-6.69-5.6-6.69Z"/><path d="M46.72,106.74c1.48,0,3.3,2.74,4.05,4.24l2,45.56c-4.15-9.39-12.71-30.86-9.94-42.68,1.51-6.43,3.19-7.12,3.85-7.12m0-1c-1.65,0-3.41,1.87-4.82,7.89-3.72,15.88,12.13,48,12.13,48l-2.27-50.87s-2.36-5-5-5Z"/><path d="M37.39,109.49c.76,0,2.52.57,5.79,4.36,7.67,8.91,9.68,32.3,10.21,42.67L35,115.61c0-1.34.23-4.48,1.41-5.69a1.32,1.32,0,0,1,1-.43m0-1c-3.57,0-3.39,7.34-3.39,7.34l20.56,45.75s-.33-36.43-10.63-48.38c-3-3.47-5.08-4.71-6.54-4.71Z"/><path d="M32,111.77c1.57,0,3.74,1.9,4.62,2.8l14.9,42.68c-6.63-7.58-21-25.31-21.67-37.41-.31-5.27.58-7,1.13-7.63a1.33,1.33,0,0,1,1-.44m0-1c-1.94,0-3.56,2-3.15,9.13.93,16.23,25.25,41.69,25.25,41.69L37.44,114s-3-3.26-5.49-3.26Z"/><path d="M23.46,117.47h0A10,10,0,0,1,28,119.28l22.69,38.65c-7.92-6-25.42-20.37-28.37-32.07-1.35-5.32-.71-7.19-.21-7.83a1.51,1.51,0,0,1,1.32-.56m0-1c-2.28,0-4,2-2.08,9.64,4,15.66,32.65,35.48,32.65,35.48l-25.24-43s-3-2.12-5.33-2.12Z"/><path class="cls-3" d="M53.57,159.7s13.36,36.47,2,85.25-3.35,92.41-3.35,92.41"/><ellipse cx="54.33" cy="158.9" rx="4.3" ry="3.52" transform="translate(-3.65 1.3) rotate(-1.32)"/><path class="cls-2" d="M53.41,81.37S21.86,45.32,21.86,23.91s12.4-6.75,12.4-6.75Z"/><path class="cls-2" d="M55.29,81.37S31.48,39.8,35.71,18.82s13.48-4.18,13.48-4.18Z"/><path class="cls-2" d="M55.76,81.37s-16.54-45-8.87-64.94,14-1.87,14-1.87Z"/><path class="cls-2" d="M54.53,81.37S16,52.92,11.4,32s10.65-9.26,10.65-9.26Z"/><path class="cls-2" d="M53,81.37S21.63,45.2,21.71,23.79s12.42-6.71,12.42-6.71Z"/><path class="cls-2" d="M53.67,81.37s-24.93-40.9-21.28-62,13.36-4.55,13.36-4.55Z"/><path class="cls-2" d="M54.7,81.37s-5.55-47.58,6.59-65.21,14,1.45,14,1.45Z"/><path class="cls-2" d="M55.27,81.37S84.39,43.34,83,22,70.18,16,70.18,16Z"/><path class="cls-2" d="M55.29,81.37S91.34,49.82,94.18,28.61s-11.39-8.35-11.39-8.35Z"/><path class="cls-2" d="M55.53,81.37S53.17,33.53,66.46,16.74s13.91,2.39,13.91,2.39Z"/><path class="cls-2" d="M54.33,81.37S63.25,34.3,80.09,21.1s13,5.58,13,5.58Z"/><path class="cls-2" d="M55.31,81.37S94.46,53.77,99.51,33s-10.45-9.48-10.45-9.48Z"/><path class="cls-2" d="M53.07,79.12S96.9,59.77,105.94,40.37,97.57,29,97.57,29Z"/><path d="M12.6,12.16v1h0c2.46,0,5.89,2.39,7.21,3.46L50.39,77.35c-10-8.78-36.49-33.57-40-51.82-1.44-7.46-.62-10.39.32-11.54a2.3,2.3,0,0,1,1.92-.83v-1m0,0c-3,0-5.29,2.86-3.22,13.56,4.46,23.05,44.15,55.65,44.15,55.65L20.61,16s-4.52-3.83-8-3.83Z"/><path d="M38.23,2.53h0c2.57,0,5.61,4.31,6.7,6.18L53,76.41C46.6,64.49,30.12,31.56,33,13.33c1.11-7,3-10.8,5.23-10.8m0-1c-2.4,0-4.8,2.73-6.21,11.64-3.65,23,22.59,68.2,22.59,68.2l-8.72-73s-3.84-6.86-7.66-6.86Z"/><path d="M3,18.51H3c2,0,5.06,1.67,6.24,2.43L49.84,77.41C38.77,69.65,11.34,49.11,3.9,31.46.32,22.94.82,20.11,1.43,19.18A1.62,1.62,0,0,1,3,18.51m0-1c-3,0-4.83,2.84,0,14.34,9.56,22.71,51,49.59,51,49.59L9.91,20.21s-4-2.7-6.94-2.7Z"/><path d="M22.69,7h0c2.49,0,5.89,3.31,7.16,4.77L50.23,76.83C41.77,66.4,19.6,37.32,19.06,18.77c-.21-7.24,1-10,2-11.07A2.16,2.16,0,0,1,22.69,7m0-1C20,6,17.77,8.86,18.06,18.8c.68,23.44,34.63,62.57,34.63,62.57L30.74,11.26S26.31,6,22.69,6Z"/><path d="M54.68,1h0c2.72,0,5,5.52,5.7,7.72L53.21,76.18c-3.61-13.1-12.39-49.05-5.51-66C51,2.2,53.47,1,54.68,1m0-1c-2.21,0-4.89,2.42-7.91,9.83-8.69,21.39,6.89,71.54,6.89,71.54L61.4,8.63S58.86,0,54.68,0Z"/><path d="M62.68,1.71c1.29,0,3.8,1.36,6.16,10.46,4.66,18-8.58,51.91-13.8,64.19L56.5,8.29c.89-1.89,3.62-6.58,6.18-6.58m0-1c-3.89,0-7.17,7.35-7.17,7.35L53.93,81.37S75.69,34.65,69.81,11.92C67.6,3.38,65,.71,62.68.71Z"/><path d="M76.22,4.37v1c2,0,2.94,2.41,3.43,4.43a24.94,24.94,0,0,1,.6,4.82l-26,61.72c.25-13.48,2-50.43,13.44-64.34,4.5-5.48,7.15-6.63,8.58-6.63v-1m0,0c-2.11,0-5.11,1.83-9.35,7-14.43,17.55-13.7,70-13.7,70L81.25,14.82s0-10.45-5-10.45Z"/><path d="M84.13,8.47a2.29,2.29,0,0,1,1.75.75c1.05,1.08,2.25,3.92,2,11.25C87.24,39,64.83,67.07,56.37,77L77.13,12.86c1.23-1.36,4.53-4.39,7-4.39m0-1c-3.59,0-7.89,4.88-7.89,4.88l-22.33,69s34.17-37.46,35-60.87c.35-10.16-2-13-4.75-13Z"/><path d="M96.57,16.39a2.6,2.6,0,0,1,2.19.95c.95,1.19,1.73,4.18,0,11.64-4.11,18-31.5,40.77-41.66,48.7L89.62,19.29c.79-.56,4.25-2.9,6.95-2.9m0-1c-3.43,0-7.72,3.22-7.72,3.22L53.93,81.37S94.59,51.88,99.76,29.2c2.51-11,0-13.81-3.19-13.81Z"/><path class="cls-3" d="M54.54,78.62s-18,52.95,0,122.8,7.88,132.94,7.88,132.94"/><ellipse cx="53.41" cy="77.5" rx="6.2" ry="5.07"/><path class="cls-1" d="M51.42,336C47.48,327.53,32.13,293.23,37,280A195.15,195.15,0,0,1,51.42,336Z"/><path d="M37.07,281.07a196.69,196.69,0,0,1,13.75,52.69c-4.85-10.62-17.35-40-13.75-52.69m-.06-2c-6.8,14.62,15,59,15,59a192.12,192.12,0,0,0-15-59Z"/><path class="cls-1" d="M51.12,334c-2.29-9-10.88-45.61-3.58-57.67A195.51,195.51,0,0,1,51.12,334Z"/><path d="M47.39,277.35a196.49,196.49,0,0,1,3.55,54.34c-2.75-11.34-9.48-42.51-3.55-54.34m.32-2c-9.44,13.07,3.57,60.72,3.57,60.72a192.26,192.26,0,0,0-3.57-60.72Z"/><path class="cls-1" d="M52,337.12c1.22-9.78,7.21-55.42,13.1-63.71C64.35,280.85,59.85,322.19,52,337.12Z"/><path d="M64.55,275.1c-1.08,10.17-5.15,44.57-11.89,59.8,2.18-17.12,7.16-50.22,11.89-59.8m1-2.81c-7,6-14.18,66.63-14.18,66.63,9.33-14.77,14.18-66.63,14.18-66.63Z"/><path class="cls-1" d="M51.26,337.45c-2.16-3.88-9.76-18.7-9.44-34.34C44.21,308,52.29,325.61,51.26,337.45Z"/><path d="M42.19,304.75c2.84,6,9.11,20.68,8.77,31.37-2.59-4.91-8.58-17.69-8.77-31.37m-.69-3.12c-1,19,10,37,10,37,2-14-10-37-10-37Z"/><path class="cls-1" d="M63,336.72c.51-11.39,4.91-99.05,19.25-110.84C82.18,234.35,81,311.72,63,336.72Z"/><path d="M81.87,226.73c-.14,11.65-1.72,83.46-18.43,108.7.73-15.31,5.15-95.53,18.43-108.7m.77-1.6c-16.1,10.69-20.06,112.78-20.06,112.78,19.93-25.54,20.06-112.78,20.06-112.78Z"/><path class="cls-1" d="M64.82,337c-5.11-9.32-30.31-56.9-22.13-74.38C45.18,267.39,60.7,298.62,64.82,337Z"/><path d="M42.72,263.46C46,270,60,299.21,64.23,335.1,57.7,323,36,280.42,42.72,263.46m0-1.69c-10.31,19.09,22.69,77,22.69,77-4.18-42.94-22.69-77-22.69-77Z"/><path class="cls-1" d="M64.15,334.42c-3-10-17.3-60.83-5.42-76.66C60.14,263,68.52,296.12,64.15,334.42Z"/><path d="M58.58,258.63A221.23,221.23,0,0,1,64,332.51c-3.76-13-15.8-58.34-5.4-73.88M58.9,257c-14.31,17.07,5.41,79.29,5.41,79.29C69.62,293.39,58.9,257,58.9,257Z"/><path class="cls-1" d="M65.1,338.39c1.57-10.91,11.12-74.82,20.42-84.53C84.56,262,77.53,319.22,65.1,338.39Z"/><path d="M85,255.06c-1.35,11.22-8,62-19.26,81.57,2.11-14.36,10.72-70,19.26-81.57m1-2.14c-10.58,7.86-21.49,87-21.49,87,14.13-19.28,21.49-87,21.49-87Z"/><path class="cls-1" d="M64.41,338.52c-2.78-4.23-15.38-24.61-14.61-46C52.92,297.94,66.38,322.5,64.41,338.52Z"/><path d="M50.15,293.87c3.9,7,15.19,28.62,14,43.55-3.53-5.54-14.2-24-14-43.55m-.66-2.64C48,316,64.64,339.54,64.64,339.54c3-18.28-15.15-48.31-15.15-48.31Z"/><path class="cls-4" d="M67.76,341.19c.9-.23-2.09-4.24-2.37-4.44-2.72-2-6.31-1.75-9.49-1.28a22.77,22.77,0,0,0-9.33,3.07c-2,1.32-3.31,2.65,1.33,3.31S62.47,342.51,67.76,341.19Z"/><path class="cls-5" d="M43.85,339.1c.44-.11-1-2.08-1.16-2.18-1.34-1-3.09-.86-4.65-.63a11.22,11.22,0,0,0-4.58,1.51c-1,.65-1.62,1.3.65,1.62A32.84,32.84,0,0,0,43.85,339.1Z"/><path class="cls-1" d="M48.48,333.26c-4.57-4.75-13.47-14.76-14.22-21.5C35.32,314.25,38.56,320.18,48.48,333.26Z"/><path d="M34.91,313.67c1.46,2.81,4.45,7.7,10.54,15.95-4.08-4.58-9-10.89-10.54-15.95M34,310.13c-1,9,17,26,17,26-17-22-17-26-17-26Z"/><path class="cls-1" d="M60.91,332.57c-4.31-5-12.63-15.47-13-22.25C48.82,312.87,51.73,319,60.91,332.57Z"/><path d="M48.45,312.26c1.3,2.89,4,7.94,9.63,16.51-3.82-4.79-8.42-11.37-9.63-16.51m-.71-3.58c-1.5,8.93,15.52,26.9,15.52,26.9-15.75-22.91-15.52-26.9-15.52-26.9Z"/><path class="cls-1" d="M51.26,332.28c-3.47-16.06-5.85-22.37-7.06-24.79C48.83,312.45,50.63,325.71,51.26,332.28Z"/><path d="M45.23,309.22c2.86,4.44,4.42,12.31,5.24,18.38-2.29-10-4.06-15.43-5.24-18.38m-2.1-3s3,2.6,8.67,29.83c0,0-1.18-24.73-8.67-29.83Z"/><path class="cls-1" d="M67.45,333.19c7.34-14.69,9.43-21.11,10-23.75C78,316.2,71.07,327.68,67.45,333.19Z"/><path d="M77.17,311.43c-.54,5.26-4.24,12.37-7.41,17.62,4.46-9.23,6.49-14.58,7.41-17.62m.24-3.65s.74,3.94-11.9,28.7c0,0,14.55-20,11.9-28.7Z"/><path class="cls-1" d="M49.29,332.27c-3.51-5.59-10.18-17.19-9.54-23.95C40.28,311,42.24,317.44,49.29,332.27Z"/><path d="M40,310.32c.86,3.06,2.79,8.45,7.06,17.76C44,322.77,40.43,315.59,40,310.32m-.17-3.65c-2.82,8.61,11.34,28.92,11.34,28.92-12.16-25-11.34-28.92-11.34-28.92Z"/><path class="cls-1" d="M50.75,334c-.67-2.63-2.46-8.26-7.22-19.71C46,318.93,50.17,327.75,50.75,334Z"/><path d="M45.54,318.76a63.41,63.41,0,0,1,4.56,12.4c-.83-2.64-2.22-6.58-4.56-12.4M42,311.13c9,21.15,9,25,9,25,.53-8.66-9-25-9-25Z"/></g></g></svg>