<svg xmlns="http://www.w3.org/2000/svg" viewBox="0 0 210.11 299.42"><defs><style>.cls-1{fill:#c14953;}.cls-2{fill:none;stroke:#f4ac45;stroke-miterlimit:10;}.cls-3{fill:#f4ac45;}</style></defs><title>Asset 4</title><g id="Layer_2" data-name="Layer 2"><g id="Layer_1-2" data-name="Layer 1"><circle class="cls-1" cx="38.5" cy="193.72" r="3.26"/><circle class="cls-2" cx="37.85" cy="193.72" r="3.26"/><path class="cls-1" d="M29,198.21s-12.28,6.66-19.45,7.17-.51-2.56-3.07-7.17-6.65-5.12-4.09-6.65,6.14-1,4.09-4.61-1.53-8.19,1-7.68,20,6.66,21.5,8.71S29,198.21,29,198.21Z"/><path class="cls-1" d="M31.33,186.88s-10-9.76-12.6-16.46,2.3-1.24,5.94-5,2.92-7.87,5.15-5.88,2.79,5.57,5.61,2.55,7.37-3.89,7.64-1.29-.46,21-2,23.11S31.33,186.88,31.33,186.88Z"/><path class="cls-1" d="M46.14,181.81s9.88-9.88,16.6-12.41,1.22,2.3,5,6,7.83,3,5.82,5.21-5.6,2.73-2.61,5.58,3.81,7.41,1.21,7.65-21-.68-23.09-2.2S46.14,181.81,46.14,181.81Z"/><path class="cls-1" d="M49.73,196s13.65,3,19.42,7.27-1.29,2.27-2.35,7.43,1.7,8.23-1.25,7.72-5.32-3.23-6.1.82-4.19,7.2-5.79,5.14S42.88,206.35,43.05,203.8,49.73,196,49.73,196Z"/><path class="cls-1" d="M41,205.83s2.78,13.69,1.18,20.69-2.6-.25-7.75.85-6.84,4.87-7.56,2,.81-6.18-3.21-5.27-8.28-.92-7-3.21,12.19-17.16,14.6-18S41,205.83,41,205.83Z"/><path class="cls-3" d="M5.55,179.21l.18,0c3.13.63,19.66,6.7,20.9,8.32.83,1.11.46,5.76-.1,9-2.2,1.16-12.49,6.39-18.62,6.83-.5,0-.93,0-1.29,0a5,5,0,0,1-1.06-.08c.06-.21.17-.52.27-.77a6.47,6.47,0,0,0,0-5.86,15.77,15.77,0,0,0-3.84-4.44c-.28-.25-.62-.54-.81-.74l.19-.13a10.18,10.18,0,0,1,2.1-.86c1.22-.41,2.49-.84,2.94-2a3.75,3.75,0,0,0-.59-3.09C4.5,183.2,4.38,180.67,5,179.6c.23-.39.44-.39.55-.39m0-1c-2.23,0-2.59,4.32-.64,7.72,2,3.58-1.54,3.07-4.1,4.6s1.54,2.05,4.1,6.66c2.37,4.27-3.18,7.22,1.71,7.22.38,0,.83,0,1.36,0,7.16-.52,19.45-7.17,19.45-7.17S29,189,27.43,187s-18.94-8.19-21.5-8.7a1.69,1.69,0,0,0-.38,0Z"/><path class="cls-3" d="M27.43,159.06l.18.15A10.55,10.55,0,0,1,29.06,161c.79,1.1,1.6,2.23,2.93,2.23a3.72,3.72,0,0,0,2.63-1.48,7.47,7.47,0,0,1,4.87-2.51c1,0,1,.43,1,.64.32,3.16-.59,20.75-1.77,22.42-.82,1.12-5.37,2.14-8.61,2.56-1.75-1.76-9.79-10-12-15.77a8.1,8.1,0,0,1-.66-2.25h.13l.68,0c.32,0,.69,0,1.08,0a5.89,5.89,0,0,0,4.5-1.82,15.68,15.68,0,0,0,3.11-5c.15-.34.33-.75.46-1m-.11-1.12c-1.14,0-1.2,3.29-4.18,6.41a4.9,4.9,0,0,1-3.78,1.51c-.67,0-1.28-.07-1.76-.07-1.19,0-1.63.45-.4,3.61,2.61,6.7,12.6,16.46,12.6,16.46s8.28-1,9.78-3,2.22-20.51,2-23.11c-.11-1.05-.92-1.53-2-1.53a8.48,8.48,0,0,0-5.6,2.83c-.78.83-1.38,1.16-1.9,1.16-1.36,0-2.1-2.27-3.71-3.71a1.63,1.63,0,0,0-1-.53Z"/><path class="cls-3" d="M63.81,168.67a7.83,7.83,0,0,1,0,.81,6.48,6.48,0,0,0,1.72,5.6,15.87,15.87,0,0,0,5,3.17c.34.15.74.33,1,.47l-.15.18a10.58,10.58,0,0,1-1.76,1.43c-1.06.74-2.16,1.51-2.25,2.76a3.74,3.74,0,0,0,1.44,2.79c1.9,1.81,2.77,4.35,2.37,5.5a.55.55,0,0,1-.56.43,11.85,11.85,0,0,1-1.23,0c-6.41,0-19.8-1.06-21.17-2C47,189,46,184.41,45.65,181.16c1.78-1.73,10.15-9.68,15.91-11.85a8.68,8.68,0,0,1,2.25-.64m.08-1a8.68,8.68,0,0,0-2.69.7c-6.72,2.54-16.6,12.42-16.6,12.42s.87,8.29,2.92,9.81c1.84,1.37,16.78,2.25,21.77,2.25.6,0,1,0,1.32,0,2.6-.24,1.78-4.8-1.21-7.65s.6-3.38,2.61-5.58-2.05-1.53-5.82-5.21c-3-3,0-6.7-2.3-6.7Z"/><path class="cls-3" d="M48.45,196.1c2.42.57,13.62,3.31,18.56,7a8.77,8.77,0,0,1,1.76,1.55c-.18.12-.47.28-.7.41a6.46,6.46,0,0,0-3.79,4.47,16,16,0,0,0,0,5.87,10.52,10.52,0,0,1,.14,1.09l-.23,0a10.62,10.62,0,0,1-2.15-.71,6.64,6.64,0,0,0-2.42-.67c-1.4,0-2.31,1-2.69,3-.56,2.89-2.52,5-3.56,5a.55.55,0,0,1-.46-.26c-2-2.52-10.51-17.91-10.4-19.95.1-1.38,3.41-4.66,5.94-6.74M48.2,195s-6.51,5.2-6.68,7.76,9,18.56,10.6,20.62a1.54,1.54,0,0,0,1.25.65c1.71,0,3.92-2.63,4.54-5.8.32-1.66.92-2.18,1.71-2.18,1.13,0,2.67,1.07,4.4,1.36a3,3,0,0,0,.55.06c2,0-.3-3,.69-7.77,1.07-5.16,8.11-3.14,2.35-7.43S48.2,195,48.2,195Z"/><path class="cls-3" d="M30.53,202.69h0c2,0,6.15,1.84,8,2.78.46,2.45,2.46,13.81,1.09,19.81a8.44,8.44,0,0,1-.71,2.23c-.18-.11-.45-.32-.66-.48a6.89,6.89,0,0,0-4.34-1.8,6.25,6.25,0,0,0-1.27.14,15.92,15.92,0,0,0-5.38,2.37c-.32.2-.7.44-.94.57,0-.06,0-.14-.06-.23a10.54,10.54,0,0,1-.22-2.25c0-1.56-.1-3.92-2.77-3.92a6,6,0,0,0-1.42.18,8.85,8.85,0,0,1-1.93.21c-2.08,0-3.62-.71-4-1.37a.54.54,0,0,1,0-.61c1.51-2.81,12.15-16.85,14.05-17.56a1.67,1.67,0,0,1,.54-.07m0-1a2.59,2.59,0,0,0-.88.13c-2.4.87-13.35,15.72-14.59,18-1,1.89,1.67,3.46,4.89,3.46a9.39,9.39,0,0,0,2.15-.24,5.28,5.28,0,0,1,1.2-.15c2.5,0,1.38,2.85,2,5.41.19.78.45,1.07.83,1.07,1,0,3-2.23,6.73-3a5.07,5.07,0,0,1,1.06-.12c2.71,0,4.08,2.36,5.11,2.36.57,0,1-.75,1.58-3.09,1.6-7-1.18-20.7-1.18-20.7s-6-3.11-8.92-3.11Z"/><circle class="cls-1" cx="150.5" cy="237.94" r="5.46"/><circle class="cls-2" cx="149.41" cy="237.94" r="5.46"/><path class="cls-1" d="M134.52,245.46s-20.58,11.15-32.58,12-.86-4.29-5.15-12-11.15-8.57-6.86-11.14,10.29-1.72,6.86-7.72-2.57-13.72,1.72-12.87,33.44,11.15,36,14.58S134.52,245.46,134.52,245.46Z"/><path class="cls-1" d="M138.5,226.49s-16.74-16.37-21.11-27.58,3.84-2.09,9.94-8.47,4.9-13.18,8.62-9.85,4.69,9.32,9.4,4.27,12.35-6.51,12.8-2.17-.76,35.25-3.27,38.72S138.5,226.49,138.5,226.49Z"/><path class="cls-1" d="M163.3,218s16.55-16.56,27.81-20.8,2,3.86,8.35,10,13.14,5,9.76,8.72-9.37,4.58-4.37,9.36,6.38,12.41,2,12.82-35.23-1.15-38.68-3.7S163.3,218,163.3,218Z"/><path class="cls-1" d="M169.32,241.83s22.87,5,32.52,12.17-2.15,3.81-3.94,12.46,2.85,13.77-2.07,12.92-8.92-5.42-10.24,1.37-7,12.08-9.69,8.63-18.06-30.28-17.78-34.56S169.32,241.83,169.32,241.83Z"/><path class="cls-1" d="M154.66,258.22s4.66,22.94,2,34.67-4.35-.43-13,1.42-11.46,8.16-12.66,3.31,1.36-10.34-5.39-8.81-13.87-1.54-11.8-5.4,20.42-28.73,24.45-30.19S154.66,258.22,154.66,258.22Z"/><path class="cls-3" d="M95.3,213a2.37,2.37,0,0,1,.44.05c4.57.91,33.11,11.14,35.41,14.2,1.63,2.17.83,10.69-.1,15.89-3,1.58-21,10.9-31.76,11.67-.84.06-1.58.09-2.2.09-2.19,0-2.47-.38-2.48-.4-.14-.2.29-1.33.52-1.94.83-2.17,2.08-5.44,0-9.25A26,26,0,0,0,88.82,236c-.75-.64-1.78-1.52-1.82-1.82,0,0,.08-.25.87-.72a18.08,18.08,0,0,1,3.64-1.52c2-.66,3.88-1.29,4.52-3,.46-1.2.16-2.66-.94-4.59-2.26-3.95-2.43-8.5-1.29-10.45a1.69,1.69,0,0,1,1.5-1m0-1c-3.73,0-4.34,7.24-1.08,12.93,3.43,6-2.57,5.15-6.86,7.72s2.57,3.43,6.86,11.15c4,7.15-5.32,12.1,2.87,12.1.64,0,1.4,0,2.27-.1,12-.85,32.59-12,32.59-12s2.57-13.72,0-17.15-31.73-13.72-36-14.58a3.57,3.57,0,0,0-.63-.07Z"/><path class="cls-3" d="M131.78,179a2.33,2.33,0,0,1,.93.62,17.85,17.85,0,0,1,2.53,3c1.27,1.77,2.47,3.44,4.36,3.44,1.22,0,2.47-.72,3.91-2.26,2.84-3,6.47-4.42,8.65-4.42,1.49,0,2.31.56,2.42,1.67.48,4.64-.84,34.93-3.08,38-1.6,2.2-10,4-15.22,4.61-2.38-2.38-16.63-16.87-20.53-26.89-1.46-3.74-1.17-4.46-1.1-4.56s.11-.13.84-.13c.34,0,.74,0,1.17.05s1.14.08,1.78.08a9.2,9.2,0,0,0,7-2.85,25.94,25.94,0,0,0,5.09-8.14,8.06,8.06,0,0,1,1.21-2.28m0-1c-1.92,0-2,5.51-7,10.73a8.18,8.18,0,0,1-6.32,2.54c-1.13,0-2.14-.13-3-.13-2,0-2.74.76-.68,6.05,4.38,11.22,21.11,27.58,21.11,27.58s13.87-1.6,16.39-5.07S156,185.33,155.58,181c-.19-1.76-1.55-2.57-3.42-2.57-2.74,0-6.57,1.73-9.38,4.74-1.3,1.39-2.32,1.94-3.18,1.94-2.28,0-3.52-3.8-6.22-6.21a2.69,2.69,0,0,0-1.61-.88Z"/><path class="cls-3" d="M193,195.29h0a.94.94,0,0,1,.44.07,5.39,5.39,0,0,1,.05,2c-.18,2.32-.44,5.81,2.67,8.86a26.1,26.1,0,0,0,8.09,5.17,8.39,8.39,0,0,1,2.26,1.22s0,.27-.63.94a17.67,17.67,0,0,1-3,2.49c-1.73,1.21-3.36,2.35-3.49,4.13-.1,1.29.6,2.6,2.21,4.14,3.41,3.25,4.89,7.75,4.14,9.92a1.64,1.64,0,0,1-1.51,1.18c-.29,0-.9.05-2.12.05-10,0-33.34-1.68-35.87-3.56-2.19-1.62-3.85-10-4.45-15.26,2.41-2.36,17.06-16.45,27.12-20.24a14.36,14.36,0,0,1,4.14-1.12m0-1a14.55,14.55,0,0,0-4.49,1.18c-11.27,4.25-27.81,20.8-27.81,20.8s1.45,13.89,4.89,16.44c3.08,2.29,28.1,3.76,36.47,3.76,1,0,1.75,0,2.21-.06,4.35-.4,3-8-2-12.82s1-5.66,4.38-9.35-3.45-2.55-9.76-8.73c-5.09-5-.08-11.22-3.86-11.22Z"/><path class="cls-3" d="M167,241.2c3.28.75,23.05,5.48,31.67,11.89,3.25,2.41,3.36,3.16,3.36,3.29s-1.1.82-1.67,1.13c-2,1.1-5.12,2.77-6,7a25.88,25.88,0,0,0,0,9.6,8.61,8.61,0,0,1,.19,2.57.9.9,0,0,1-.38.05,4.8,4.8,0,0,1-.76-.08,17.44,17.44,0,0,1-3.74-1.23,10.86,10.86,0,0,0-3.8-1.07c-3,0-3.63,3.36-3.84,4.47-1,4.93-4.41,8.9-6.62,8.9a1.62,1.62,0,0,1-1.31-.7c-2.86-3.68-17.82-30.06-17.56-33.87.18-2.71,6.35-8.65,10.45-12m-.25-1.08s-10.91,8.71-11.2,13,15.08,31.1,17.77,34.55a2.6,2.6,0,0,0,2.1,1.09c2.85,0,6.57-4.4,7.6-9.71.54-2.79,1.53-3.66,2.86-3.66,1.89,0,4.47,1.79,7.37,2.29a5.68,5.68,0,0,0,.93.09c3.37,0-.51-5,1.15-13,1.79-8.64,13.6-5.26,3.94-12.45s-32.52-12.17-32.52-12.17Z"/><path class="cls-3" d="M137.14,252.29h0c4.1,0,12.13,3.91,14.06,4.89.63,3.31,4.28,23.3,1.89,33.78-1,4.34-1.67,4.39-1.67,4.39a5.31,5.31,0,0,1-1.7-1.07c-1.56-1.22-3.7-2.88-6.86-2.88a9.12,9.12,0,0,0-2,.22,25.82,25.82,0,0,0-8.78,3.88,8.34,8.34,0,0,1-2.27,1.21s-.21-.15-.44-1a17.85,17.85,0,0,1-.38-3.92c-.07-2.63-.16-5.91-4-5.91a10.26,10.26,0,0,0-2.22.29,15.31,15.31,0,0,1-3.39.37c-3.77,0-6.53-1.32-7.31-2.62a1.58,1.58,0,0,1,0-1.7c2.21-4.1,20.31-28.42,23.91-29.73a3.48,3.48,0,0,1,1.12-.15m0-1a4.59,4.59,0,0,0-1.46.21c-4,1.46-22.38,26.35-24.45,30.2-1.7,3.16,2.79,5.79,8.19,5.79a16,16,0,0,0,3.61-.4,9.06,9.06,0,0,1,2-.26c4.2,0,2.31,4.79,3.38,9.08.33,1.29.76,1.79,1.4,1.79,1.74,0,4.94-3.75,11.27-5.1a8.16,8.16,0,0,1,1.78-.2c4.54,0,6.84,4,8.56,4,1,0,1.75-1.25,2.64-5.17,2.68-11.73-2-34.67-2-34.67s-10-5.22-15-5.22Z"/><circle class="cls-1" cx="131.36" cy="79.19" r="7.22"/><circle class="cls-2" cx="129.91" cy="79.19" r="7.22"/><path class="cls-1" d="M110.24,89.13s-27.19,14.73-43,15.86-1.13-5.66-6.8-15.86S45.66,77.8,51.33,74.4s13.59-2.26,9.06-10.19-3.4-18.13,2.27-17,44.18,14.73,47.58,19.26S110.24,89.13,110.24,89.13Z"/><path class="cls-1" d="M115.49,64.06S93.38,42.44,87.6,27.63s5.08-2.76,13.14-11.19,6.47-17.42,11.39-13,6.19,12.32,12.42,5.65S140.86.46,141.46,6.2s-1,46.57-4.32,51.16S115.49,64.06,115.49,64.06Z"/><path class="cls-1" d="M148.26,52.83S170.12,31,185,25.35s2.71,5.11,11,13.26,17.35,6.66,12.89,11.54-12.38,6.05-5.78,12.35,8.43,16.41,2.68,16.94-46.55-1.51-51.1-4.89S148.26,52.83,148.26,52.83Z"/><path class="cls-1" d="M156.22,84.33s30.21,6.59,43,16.09-2.84,5-5.21,16.45,3.77,18.2-2.74,17.08-11.78-7.16-13.53,1.81-9.25,16-12.81,11.39-23.86-40-23.47-45.65S156.22,84.33,156.22,84.33Z"/><path class="cls-1" d="M136.85,106s6.15,30.31,2.61,45.81-5.75-.57-17.16,1.87-15.13,10.78-16.73,4.37,1.8-13.66-7.11-11.64-18.33-2-15.59-7.13,27-38,32.3-39.89S136.85,106,136.85,106Z"/><path class="cls-3" d="M58.42,45.86a2.91,2.91,0,0,1,.64.07c6.06,1.21,43.92,14.8,47,18.88,2.49,3.32.85,16.14-.09,21.4-3.5,1.85-27.83,14.49-42.23,15.52-1.12.08-2.11.12-2.93.12-2.79,0-3.41-.46-3.55-.66-.28-.4.2-1.65.66-2.86,1.07-2.81,2.69-7,0-12a33.72,33.72,0,0,0-8.22-9.51c-1.2-1-2.56-2.19-2.52-2.69,0-.07.1-.46,1.31-1.18a23.68,23.68,0,0,1,4.87-2c2.56-.86,5-1.66,5.77-3.73.57-1.49.19-3.33-1.22-5.79-3.07-5.38-3.28-11.41-1.7-14.13a2.53,2.53,0,0,1,2.26-1.46m0-1c-4.93,0-5.73,9.56-1.43,17.08,4.53,7.93-3.4,6.8-9.06,10.2s3.4,4.53,9.06,14.73c5.25,9.45-7,16,3.8,16,.85,0,1.84,0,3-.12,15.86-1.13,43.05-15.86,43.05-15.86s3.4-18.13,0-22.66S64.92,46.08,59.26,45a4.3,4.3,0,0,0-.84-.09Z"/><path class="cls-3" d="M106.6,1c.14,0,.55.09,1.47.9A24.9,24.9,0,0,1,111.44,6c1.63,2.28,3.17,4.42,5.51,4.42,1.52,0,3.09-.91,4.94-2.89C125.15,4,130,1.54,133.55,1.54c2.16,0,3.34.84,3.51,2.5.64,6.14-1.14,46.33-4.13,50.46-2.44,3.37-15.17,5.59-20.48,6.24C109.65,58,90.38,38.45,85.14,25c-1.82-4.66-1.67-6-1.42-6.33s.6-.31,1.37-.31c.46,0,1,0,1.57.07s1.5.1,2.33.1a11.86,11.86,0,0,0,9.08-3.66A33.51,33.51,0,0,0,104.72,4.2c.65-1.5,1.39-3.2,1.88-3.2m0-1c-2.53,0-2.66,7.28-9.26,14.17A10.81,10.81,0,0,1,89,17.53c-1.48,0-2.83-.17-3.9-.17-2.63,0-3.61,1-.89,8C90,40.18,112.09,61.79,112.09,61.79s18.32-2.11,21.65-6.7,4.91-45.41,4.32-51.15c-.24-2.33-2-3.4-4.51-3.4-3.63,0-8.69,2.29-12.4,6.26-1.72,1.84-3.06,2.57-4.2,2.57-3,0-4.65-5-8.22-8.21A3.56,3.56,0,0,0,106.6,0Z"/><path class="cls-3" d="M187.55,22.52h0a1.31,1.31,0,0,1,.81.2c.33.37.24,1.66.14,2.9-.22,3-.56,7.53,3.45,11.44a33.39,33.39,0,0,0,10.59,6.77c1.44.65,3.07,1.37,3.17,1.87,0,.06,0,.46-.91,1.5a24.09,24.09,0,0,1-4.09,3.34c-2.22,1.55-4.31,3-4.47,5.21-.12,1.6.77,3.25,2.82,5.21,4.6,4.39,6.58,10.49,5.55,13.45a2.46,2.46,0,0,1-2.27,1.77c-.56,0-1.54.08-2.82.08-11.94,0-43.94-2.07-47.6-4.78-3.33-2.47-5.41-15.23-6-20.54C148.73,48.17,168.45,29.11,182,24a18.71,18.71,0,0,1,5.59-1.5m0-1a19.42,19.42,0,0,0-6,1.56c-14.87,5.62-36.74,27.49-36.74,27.49s1.92,18.34,6.47,21.72c4.07,3,37.13,5,48.19,5,1.3,0,2.3,0,2.91-.09,5.75-.53,3.93-10.62-2.68-16.93s1.32-7.49,5.78-12.36S201,44.51,192.64,36.35c-6.72-6.58-.1-14.83-5.09-14.83Z"/><path class="cls-3" d="M153.07,83.15c3.85.88,30.54,7.18,42.12,15.8,4,3,4.59,4.19,4.56,4.63s-1.23,1.13-2.37,1.75c-2.65,1.43-6.64,3.59-7.77,9.07a33.66,33.66,0,0,0,0,12.57c.25,1.61.5,3.27.16,3.67a1.1,1.1,0,0,1-.72.16,6.32,6.32,0,0,1-1.05-.1,24.81,24.81,0,0,1-5-1.65,14,14,0,0,0-4.9-1.4c-3.28,0-4.29,3.23-4.76,5.65-1.31,6.77-6,12-9.05,12a2.42,2.42,0,0,1-2-1c-3.79-4.87-23.61-39.88-23.27-45,.29-4.14,9.9-12.78,14-16.15m-.25-1.08S138.41,93.58,138,99.23s19.92,41.1,23.48,45.66a3.42,3.42,0,0,0,2.77,1.43c3.77,0,8.67-5.81,10-12.83.71-3.68,2-4.84,3.77-4.84,2.51,0,5.91,2.37,9.75,3a7.35,7.35,0,0,0,1.22.12c4.45,0-.67-6.6,1.52-17.19,2.37-11.43,18-7,5.21-16.46s-43-16.08-43-16.08Z"/><path class="cls-3" d="M113.71,97.83h0c5.58,0,16.56,5.4,18.85,6.56.75,3.89,5.74,30.84,2.52,44.92-1.25,5.46-2.18,6.05-2.52,6.05a6.49,6.49,0,0,1-2.43-1.48c-2-1.57-4.81-3.73-8.87-3.73a12.1,12.1,0,0,0-2.57.28,33.31,33.31,0,0,0-11.49,5.09,9.79,9.79,0,0,1-3.19,1.63c-.41,0-.72-1-.87-1.61a24,24,0,0,1-.52-5.25c-.09-3.52-.19-7.5-4.92-7.5a13,13,0,0,0-2.86.37,21,21,0,0,1-4.56.5c-4.49,0-8.67-1.52-9.93-3.62a2.41,2.41,0,0,1,0-2.56c2.92-5.44,27-37.69,31.76-39.43a4.78,4.78,0,0,1,1.6-.22m0-1a5.93,5.93,0,0,0-1.94.28C106.45,99,82.2,131.92,79.47,137c-2.25,4.17,3.69,7.65,10.81,7.65a21.28,21.28,0,0,0,4.78-.53,12.45,12.45,0,0,1,2.64-.34c5.55,0,3.06,6.32,4.47,12,.43,1.71,1,2.37,1.84,2.37,2.3,0,6.54-5,14.89-6.74a11.2,11.2,0,0,1,2.36-.26c6,0,9,5.21,11.3,5.21,1.28,0,2.31-1.65,3.5-6.83,3.54-15.5-2.61-45.81-2.61-45.81s-13.2-6.89-19.74-6.89Z"/></g></g></svg>