<svg xmlns="http://www.w3.org/2000/svg" viewBox="-1500 -300 2000 1000"><defs><style>.cls-1{fill:#c1c9e7;}.cls-2,.cls-5{fill:none;stroke-miterlimit:10;}.cls-2{stroke:#a22c29;}.cls-3{fill:#f7bc54;}.cls-4{fill:#a22c29;}.cls-5{stroke:#db8e3a;}</style></defs><title>Asset 3</title><g id="Layer_2" data-name="Layer 2"><g id="Layer_1-2" data-name="Layer 1"><path class="cls-1" d="M94.69,523.35C35.92,480.92,3.67,406,.22,343.84c-3.5-63.18,34.92-96,81.18-117.27,30.42-14,62.29-32.38,71.1-68,9.65-39.08-24.6-88.83-17.72-127.5,5.32-30,40.83-37.25,75.54-26.12C350.78,50,460,218.09,444.3,336.31,433.17,420,384.37,484.58,319.4,522.17c-45.29,26.2-104.93,47.91-172.89,27.1A176.52,176.52,0,0,1,94.69,523.35Z"/><path class="cls-2" d="M176.38,4.36s173.39,97.92,227.11,392.52"/><path class="cls-3" d="M323,63.52s-41.85-31.14-76.3-13.28C246.72,50.24,285.86,81.63,323,63.52Z"/><path class="cls-3" d="M351.35,99.17s-39.28-28.55-70.68-13.44C280.67,85.73,317.46,114.46,351.35,99.17Z"/><path class="cls-3" d="M376.16,138.47s-37.77-30.65-70.41-15.84C305.75,122.63,341,153.39,376.16,138.47Z"/><path class="cls-3" d="M393.21,172.21s-34.92-28.55-65.08-15.44C328.13,156.77,360.72,185.39,393.21,172.21Z"/><path class="cls-3" d="M411.25,207.64s-33.92-28.57-64.52-13.75C346.73,193.89,378.3,222.61,411.25,207.64Z"/><path class="cls-3" d="M420.2,239.37s-32.2-25.59-58.67-15.83C361.53,223.54,391.65,249.08,420.2,239.37Z"/><path class="cls-3" d="M442.07,276.33s-34-29.37-62.8-21.12C379.27,255.21,411,284.37,442.07,276.33Z"/><path class="cls-3" d="M452.69,303.84S418.8,278.72,391.9,290C391.9,290,423.65,315.12,452.69,303.84Z"/><path class="cls-3" d="M463.47,341s-34.6-28.08-62.92-19C400.55,322,432.91,349.89,463.47,341Z"/><path class="cls-3" d="M462.15,370.87s-29.12-27.65-56.34-19C405.81,351.86,432.88,379.37,462.15,370.87Z"/><path class="cls-3" d="M456.87,412.31S439.11,378,413,375.79C413,375.79,429,409.28,456.87,412.31Z"/><path class="cls-3" d="M238.84,60.17s2.61,46.81-35,63.44C203.84,123.61,199.31,78.69,238.84,60.17Z"/><path class="cls-3" d="M266.43,98.88s-3,43.54-37.76,55.51C228.67,154.39,229.78,112.42,266.43,98.88Z"/><path class="cls-3" d="M295.4,133.47s-12.39,42-50,44.59C245.43,178.06,255.58,137.11,295.4,133.47Z"/><path class="cls-3" d="M313.11,169.62S303,208.94,268.7,212.82C268.7,212.82,276.84,174.55,313.11,169.62Z"/><path class="cls-3" d="M335.85,198.63S325.8,237.3,290,239.33C290,239.33,297.93,201.61,335.85,198.63Z"/><path class="cls-3" d="M351.12,233.82s-12.36,34.88-41.52,37.62C309.6,271.44,320.17,237.45,351.12,233.82Z"/><path class="cls-3" d="M357,258.82s-11.37,38.86-41.62,44C315.42,302.83,325,265.08,357,258.82Z"/><path class="cls-3" d="M365.16,292.31s-7.74,37.12-37.42,44.1C327.74,336.41,333.76,300.46,365.16,292.31Z"/><path class="cls-3" d="M379.38,317.59s-6.58,39.56-35.84,48.54C343.54,366.13,348.45,327.89,379.38,317.59Z"/><path class="cls-3" d="M388.18,351.9s-2.55,36.24-30.63,44.91C357.55,396.81,358.57,361.81,388.18,351.9Z"/><path class="cls-3" d="M394.58,381s.24,36.72-22.89,46C371.69,427.09,370.25,391.66,394.58,381Z"/><path class="cls-2" d="M317.61,60.91s-41.85-31.13-76.3-13.27C241.31,47.64,280.45,79,317.61,60.91Z"/><path class="cls-2" d="M345.94,96.57S306.66,68,275.27,83.13C275.27,83.13,312.05,111.86,345.94,96.57Z"/><path class="cls-2" d="M370.75,135.86S333,105.22,300.34,120C300.34,120,335.59,150.78,370.75,135.86Z"/><path class="cls-2" d="M387.81,169.61s-34.92-28.55-65.08-15.44C322.73,154.17,355.31,182.79,387.81,169.61Z"/><path class="cls-2" d="M405.84,205s-33.91-28.57-64.52-13.76C341.32,191.28,372.9,220,405.84,205Z"/><path class="cls-2" d="M414.8,236.76s-32.2-25.58-58.68-15.82C356.12,220.94,386.24,246.48,414.8,236.76Z"/><path class="cls-2" d="M436.66,273.72s-34-29.36-62.79-21.12C373.87,252.6,405.59,281.76,436.66,273.72Z"/><path class="cls-2" d="M447.29,301.24s-33.89-25.12-60.8-13.89C386.49,287.35,418.24,312.52,447.29,301.24Z"/><path class="cls-2" d="M458.06,338.38s-34.59-28.07-62.92-19C395.14,319.35,427.51,347.29,458.06,338.38Z"/><path class="cls-2" d="M456.74,368.27s-29.12-27.66-56.33-19C400.41,349.26,427.47,376.76,456.74,368.27Z"/><path class="cls-2" d="M451.47,409.7s-17.76-34.34-43.89-36.52C407.58,373.18,423.58,406.67,451.47,409.7Z"/><path class="cls-2" d="M233.43,57.56s2.61,46.81-35,63.45C198.43,121,193.91,76.08,233.43,57.56Z"/><path class="cls-2" d="M261,96.28s-3,43.54-37.75,55.5C223.27,151.78,224.38,109.82,261,96.28Z"/><path class="cls-2" d="M290,130.87s-12.38,42-50,44.58C240,175.45,250.17,134.51,290,130.87Z"/><path class="cls-2" d="M307.7,167s-10.15,39.33-44.4,43.2C263.3,210.21,271.44,172,307.7,167Z"/><path class="cls-2" d="M330.45,196s-10.05,38.66-45.88,40.7C284.57,236.73,292.53,199,330.45,196Z"/><path class="cls-2" d="M345.72,231.21s-12.37,34.88-41.52,37.62C304.2,268.83,314.77,234.85,345.72,231.21Z"/><path class="cls-2" d="M351.63,256.22s-11.36,38.85-41.61,44C310,300.23,319.56,262.48,351.63,256.22Z"/><path class="cls-2" d="M359.76,289.7s-7.75,37.12-37.42,44.11C322.34,333.81,328.36,297.85,359.76,289.7Z"/><path class="cls-2" d="M374,315s-6.58,39.56-35.84,48.54C338.13,363.52,343,325.29,374,315Z"/><path class="cls-2" d="M382.77,349.3s-2.55,36.24-30.63,44.9C352.14,394.2,353.16,359.2,382.77,349.3Z"/><path class="cls-2" d="M389.18,378.44s.24,36.71-22.89,46.05C366.29,424.49,364.84,389.05,389.18,378.44Z"/><circle class="cls-4" cx="172.98" cy="245.81" r="6.37"/><circle class="cls-5" cx="172.98" cy="244.54" r="6.37"/><path class="cls-4" d="M172.34,232.43s-11.47-53.52,6.37-62.44l43.32,5.1-39.5,57.34Z"/><path class="cls-4" d="M188.82,239.1s41.63-35.52,58-24.06l16.1,40.54-69.22-7.51Z"/><path class="cls-4" d="M183.65,254.82s53.18,12.94,53.45,32.89L213.67,324.5,179.22,264Z"/><path class="cls-4" d="M159.51,232.24,154.68,244s-41.51,10.51-49.76,7.12S108.53,192,108.53,192,112.4,182.6,159.51,232.24Z"/><path class="cls-4" d="M161,254.93l8.4,9.58s-9.07,41.84-15.77,47.72-51.34-29.55-51.34-29.55S95.59,275,161,254.93Z"/><path class="cls-5" d="M176.16,228.61s-11.46-53.52,6.37-62.44l43.33,5.1-39.5,57.34Z"/><path class="cls-5" d="M192.64,235.28s41.64-35.52,58-24.06l16.1,40.54-69.22-7.51Z"/><path class="cls-5" d="M187.47,251s53.18,12.95,53.45,32.89l-23.43,36.8L183,260.17Z"/><path class="cls-5" d="M163.34,228.42,158.5,240.2s-41.51,10.51-49.76,7.13,3.61-59.13,3.61-59.13S116.22,178.77,163.34,228.42Z"/><path class="cls-5" d="M164.84,251.11l8.4,9.58s-9.06,41.84-15.77,47.72-51.33-29.55-51.33-29.55S99.42,271.19,164.84,251.11Z"/><circle class="cls-4" cx="122.16" cy="378.72" r="3.96"/><circle class="cls-5" cx="122.16" cy="377.92" r="3.96"/><path class="cls-4" d="M121.76,370.39s-7.13-33.29,4-38.84l27,3.17L128.1,370.39Z"/><path class="cls-4" d="M132,374.55s25.9-22.1,36.06-15l10,25.23L135,380.13Z"/><path class="cls-4" d="M128.8,384.32s33.08,8.06,33.25,20.46l-14.58,22.89L126,390Z"/><path class="cls-4" d="M113.78,370.27l-3,7.34S85,384.15,79.82,382s2.24-36.78,2.24-36.78S84.47,339.39,113.78,370.27Z"/><path class="cls-4" d="M114.72,384.39l5.22,6s-5.64,26-9.81,29.69S78.2,401.65,78.2,401.65,74,396.89,114.72,384.39Z"/><path class="cls-5" d="M124.14,368s-7.14-33.3,4-38.85l27,3.17L130.48,368Z"/><path class="cls-5" d="M134.39,372.17s25.9-22.1,36.06-15l10,25.22-43.07-4.67Z"/><path class="cls-5" d="M131.18,381.94s33.08,8.06,33.25,20.46l-14.58,22.89-21.43-37.64Z"/><path class="cls-5" d="M116.16,367.9l-3,7.33s-25.82,6.54-30.95,4.43,2.24-36.78,2.24-36.78S86.85,337,116.16,367.9Z"/><path class="cls-5" d="M117.1,382l5.22,6s-5.64,26-9.81,29.69-31.94-18.38-31.94-18.38S76.39,394.51,117.1,382Z"/><circle class="cls-4" cx="239.57" cy="377.28" r="4.81"/><circle class="cls-5" cx="239.57" cy="376.32" r="4.81"/><path class="cls-4" d="M239.09,367.18s-8.65-40.39,4.81-47.12l32.7,3.84-29.82,43.28Z"/><path class="cls-4" d="M251.53,372.22s31.42-26.81,43.74-18.16l12.16,30.59L255.18,379Z"/><path class="cls-4" d="M247.63,384.08s40.13,9.77,40.34,24.82l-17.69,27.77-26-45.67Z"/><path class="cls-4" d="M229.41,367l-3.65,8.89s-31.33,7.94-37.56,5.38,2.73-44.62,2.73-44.62S193.85,329.57,229.41,367Z"/><path class="cls-4" d="M230.55,384.16l6.34,7.23S230,423,225,427.41s-38.74-22.3-38.74-22.3S181.16,399.32,230.55,384.16Z"/><path class="cls-5" d="M242,364.3s-8.66-40.4,4.8-47.13l32.7,3.85L249.67,364.3Z"/><path class="cls-5" d="M254.41,369.33s31.43-26.81,43.75-18.16l12.15,30.6-52.24-5.67Z"/><path class="cls-5" d="M250.51,381.19S290.65,391,290.85,406l-17.68,27.77-26-45.67Z"/><path class="cls-5" d="M232.29,364.15l-3.65,8.9s-31.32,7.93-37.55,5.37,2.72-44.62,2.72-44.62S196.74,326.68,232.29,364.15Z"/><path class="cls-5" d="M233.43,381.28l6.34,7.23s-6.84,31.58-11.9,36-38.75-22.31-38.75-22.31S184.05,396.44,233.43,381.28Z"/></g></g></svg>