<svg xmlns="http://www.w3.org/2000/svg" viewBox="-400 50 700 540"><defs><style>.cls-1,.cls-3{fill:none;stroke-miterlimit:10;}.cls-1{stroke:#2c6e49;}.cls-2{fill:#2c6e49;}.cls-3{stroke:#000;}.cls-4{fill:#e55381;}</style></defs><title>Asset 2</title><g id="Layer_2" data-name="Layer 2"><g id="Layer_1-2" data-name="Layer 1"><path class="cls-1" d="M174.36,3.46c3.7,24,7.41,48.17,5.36,72.31-1.22,14.37-4.47,28.54-5,42.94-.62,18.52,3.32,36.85,7,55,6.5,31.83,12.36,64.25,9.77,96.64-1.49,18.53-5.74,36.84-5.85,55.44-.26,47.57,26.29,96.38,9.1,140.74"/><path class="cls-2" d="M177.83,22c.47-2.43,2.54-10.39,9.87-14,3.38-1.69,6-2.58,7.55-2.58,1.09,0,1.34.42,1.42.56.3.52.47,2-1.74,5.83C191.17,18.37,180.67,21.33,177.83,22Z"/><path class="cls-2" d="M195.25,5.9h0c.37,0,.84,0,1,.31s.54,1.33-1.75,5.33c-3.38,5.91-12.44,8.85-16,9.8.69-3,2.94-9.67,9.43-12.91,4.18-2.09,6.3-2.53,7.33-2.53m0-1c-1.67,0-4.31.9-7.78,2.63-9,4.51-10.25,15.15-10.25,15.15S190.85,19.93,195.36,12c2.77-4.85,2.56-7.14-.11-7.14Z"/><path class="cls-2" d="M181.21,49.06c.47-2.42,2.54-10.38,9.87-14,3.38-1.69,6-2.58,7.55-2.58,1.09,0,1.34.42,1.42.56.3.51.47,2-1.75,5.83C194.55,45.4,184.05,48.37,181.21,49.06Z"/><path class="cls-2" d="M198.63,32.94h0c.37,0,.84.05,1,.31s.54,1.33-1.75,5.33c-3.38,5.91-12.43,8.85-16,9.8.7-3,3-9.68,9.43-12.91,4.18-2.1,6.3-2.53,7.33-2.53m0-1c-1.67,0-4.31.9-7.78,2.63-9,4.51-10.25,15.15-10.25,15.15S194.23,47,198.74,39.08c2.77-4.85,2.56-7.14-.11-7.14Z"/><path class="cls-2" d="M180,77.86c.85-2.31,4.16-9.84,12-12.28a25.23,25.23,0,0,1,6.94-1.41c.84,0,1.91.14,2.21.78s.26,2-2.62,5.55C193.76,76.39,182.93,77.63,180,77.86Z"/><path class="cls-2" d="M198.94,64.67h0c.95,0,1.61.19,1.76.5s.41,1.34-2.56,5c-4.28,5.3-13.69,6.74-17.36,7.11,1.16-2.81,4.46-9.08,11.37-11.23a25,25,0,0,1,6.79-1.39m0-1a26.12,26.12,0,0,0-7.09,1.43c-9.62,3-12.55,13.31-12.55,13.31s13.9-.54,19.62-7.6c3.91-4.84,3.66-7.14,0-7.14Z"/><path class="cls-2" d="M176.64,103.78c.85-2.32,4.16-9.85,12-12.29a25.62,25.62,0,0,1,6.94-1.41c.84,0,1.91.14,2.21.78s.26,2-2.62,5.55C190.39,102.3,179.55,103.54,176.64,103.78Z"/><path class="cls-2" d="M195.56,90.58h0c.95,0,1.61.19,1.76.5s.41,1.34-2.56,5c-4.28,5.3-13.69,6.74-17.36,7.12,1.16-2.82,4.46-9.08,11.37-11.24a25,25,0,0,1,6.79-1.39m0-1A26.12,26.12,0,0,0,188.47,91c-9.62,3-12.55,13.31-12.55,13.31s13.9-.53,19.62-7.6c3.91-4.84,3.66-7.14,0-7.14Z"/><path class="cls-2" d="M176.64,131.94c.85-2.32,4.16-9.84,12-12.28a25.23,25.23,0,0,1,6.94-1.41c.84,0,1.91.13,2.21.78s.26,2-2.62,5.54C190.39,130.46,179.55,131.71,176.64,131.94Z"/><path class="cls-2" d="M195.56,118.75h0c.95,0,1.61.18,1.76.49s.41,1.35-2.56,5c-4.28,5.29-13.69,6.74-17.37,7.11,1.16-2.81,4.45-9.07,11.38-11.24a24.88,24.88,0,0,1,6.79-1.38m0-1a25.73,25.73,0,0,0-7.09,1.43c-9.62,3-12.55,13.31-12.55,13.31s13.9-.54,19.62-7.6c3.91-4.84,3.66-7.14,0-7.14Z"/><path class="cls-2" d="M180,160.11c.85-2.32,4.16-9.85,12-12.29a25.62,25.62,0,0,1,6.94-1.41c.84,0,1.91.14,2.21.78s.26,2-2.62,5.55C193.77,158.63,182.93,159.87,180,160.11Z"/><path class="cls-2" d="M198.94,146.91h0c.95,0,1.61.19,1.76.5s.41,1.34-2.56,5c-4.28,5.3-13.69,6.74-17.36,7.11,1.16-2.81,4.46-9.07,11.37-11.23a25,25,0,0,1,6.79-1.39m0-1a26.12,26.12,0,0,0-7.09,1.43c-9.62,3-12.55,13.31-12.55,13.31s13.9-.53,19.62-7.6c3.91-4.84,3.66-7.14,0-7.14Z"/><path class="cls-2" d="M184.52,184.89c.85-2.32,4.17-9.84,12-12.29a25.53,25.53,0,0,1,6.93-1.4c.84,0,1.91.13,2.22.78s.26,2-2.63,5.54C198.27,183.41,187.44,184.66,184.52,184.89Z"/><path class="cls-2" d="M203.44,171.7h0c1,0,1.62.18,1.77.49s.4,1.35-2.57,5c-4.28,5.29-13.68,6.74-17.36,7.11,1.17-2.81,4.47-9.08,11.38-11.24a24.9,24.9,0,0,1,6.78-1.38m0-1a25.68,25.68,0,0,0-7.08,1.43c-9.62,3-12.55,13.31-12.55,13.31s13.9-.54,19.61-7.6c3.92-4.84,3.66-7.14,0-7.14Z"/><path class="cls-2" d="M190.31,209.92c.8-2.34,3.94-9.94,11.7-12.56a24.48,24.48,0,0,1,7.08-1.57c.77,0,1.76.13,2.06.75s.29,2-2.5,5.59C204,208.13,193.22,209.62,190.31,209.92Z"/><path class="cls-2" d="M209.09,196.29h0c.87,0,1.47.18,1.61.47s.42,1.34-2.45,5.06c-4.16,5.39-13.53,7.06-17.19,7.51,1.1-2.84,4.25-9.18,11.11-11.5a24.14,24.14,0,0,1,6.92-1.54m0-1a24.75,24.75,0,0,0-7.24,1.6c-9.55,3.22-12.24,13.59-12.24,13.59s13.89-.85,19.43-8c3.74-4.84,3.51-7.14.05-7.14Z"/><path class="cls-2" d="M192.88,236.52c.35-2.45,2-10.49,9.19-14.5,4.33-2.43,6.53-2.94,7.6-2.94s1.2.39,1.28.52c.31.51.53,1.94-1.48,5.88C206,232.24,195.68,235.69,192.88,236.52Z"/><path class="cls-2" d="M209.67,219.58h0c.45,0,.74.09.85.28s.58,1.32-1.5,5.4c-3.09,6.06-12,9.42-15.52,10.54.56-3,2.5-9.8,8.81-13.34,4.24-2.38,6.35-2.88,7.36-2.88m0-1c-1.66,0-4.32,1-7.85,3-8.79,4.93-9.53,15.62-9.53,15.62s13.5-3.4,17.62-11.49c2.48-4.84,2.24-7.13-.24-7.13Z"/><path class="cls-2" d="M193.4,260.62c.53-2.41,2.8-10.31,10.22-13.79,3.38-1.58,5.91-2.39,7.5-2.39.79,0,1.3.2,1.52.59s.43,2-1.89,5.8C206.82,257.3,196.25,260,193.4,260.62Z"/><path class="cls-2" d="M211.13,244.94h0c.33,0,.91,0,1.07.34s.52,1.33-1.88,5.29c-3.53,5.82-12.66,8.52-16.25,9.38.77-2.94,3.19-9.59,9.76-12.67,4.13-1.93,6.25-2.34,7.3-2.34m0-1c-1.67,0-4.29.83-7.71,2.44-9.13,4.27-10.65,14.88-10.65,14.88s13.71-2.41,18.41-10.17c2.94-4.85,2.74-7.15,0-7.15Z"/><path class="cls-2" d="M190.46,285.91c.4-2.43,2.25-10.45,9.47-14.32,4.31-2.31,6.51-2.79,7.59-2.79s1.25.4,1.33.54c.3.51.5,2-1.59,5.86C203.68,281.88,193.28,285.14,190.46,285.91Z"/><path class="cls-2" d="M207.52,269.3h0c.48,0,.78.1.9.29s.56,1.33-1.6,5.38c-3.21,6-12.19,9.19-15.73,10.24.62-3,2.67-9.75,9.07-13.18,4.23-2.26,6.33-2.73,7.36-2.73m0-1c-1.67,0-4.32,1-7.83,2.85-8.88,4.76-9.83,15.43-9.83,15.43s13.56-3.13,17.84-11.14c2.59-4.85,2.37-7.14-.18-7.14Z"/><path class="cls-2" d="M186.85,312.69c.47-2.42,2.53-10.38,9.86-14.05,3.38-1.69,6-2.59,7.55-2.59,1.09,0,1.34.43,1.42.57.3.51.47,1.95-1.74,5.83C200.18,309,189.69,312,186.85,312.69Z"/><path class="cls-2" d="M204.26,296.55h0c.37,0,.84.06,1,.32s.54,1.33-1.75,5.33c-3.37,5.91-12.42,8.85-16,9.81.7-3,3-9.68,9.42-12.92,4.18-2.1,6.3-2.54,7.33-2.54m0-1c-1.67,0-4.31.91-7.78,2.64-9,4.52-10.25,15.16-10.25,15.16s13.64-2.76,18.14-10.65c2.77-4.85,2.56-7.15-.11-7.15Z"/><path class="cls-2" d="M186.92,333.83c.8-2.33,4-9.93,11.72-12.54a24.27,24.27,0,0,1,7.07-1.56c.78,0,1.77.13,2.07.74s.28,2-2.51,5.59C200.64,332.05,189.83,333.54,186.92,333.83Z"/><path class="cls-2" d="M205.71,320.23h0c.87,0,1.48.17,1.62.46s.42,1.34-2.46,5.07c-4.16,5.38-13.53,7-17.2,7.48,1.1-2.83,4.27-9.17,11.13-11.48a23.93,23.93,0,0,1,6.91-1.53m0-1a25.14,25.14,0,0,0-7.23,1.58c-9.55,3.22-12.26,13.58-12.26,13.58s13.89-.84,19.44-8c3.75-4.84,3.52-7.14.05-7.14Z"/><path class="cls-2" d="M190.29,360.07c.14-2.46,1.12-10.63,7.89-15.24,4.37-3,6.54-3.61,7.58-3.61a1.19,1.19,0,0,1,1.08.46c.33.49.65,1.92-1,5.95C203,354.65,193,359,190.29,360.07Z"/><path class="cls-2" d="M205.76,341.72h0c.51,0,.62.17.67.24.17.26.61,1.41-1,5.49-2.55,6.31-11.13,10.43-14.54,11.86.3-3,1.63-10,7.61-14.07,4.49-3.06,6.5-3.52,7.3-3.52m0-1c-1.63,0-4.31,1.27-7.86,3.7-8.33,5.67-8.13,16.38-8.13,16.38s13.14-4.56,16.55-13c2-4.82,1.63-7.1-.56-7.1Z"/><path class="cls-2" d="M195.47,384.44c.26-2.45,1.64-10.56,8.63-14.84,4.36-2.67,6.55-3.23,7.61-3.23a1.29,1.29,0,0,1,1.18.49c.32.5.58,1.93-1.26,5.92C208.45,379.65,198.24,383.51,195.47,384.44Z"/><path class="cls-2" d="M211.71,366.87h0c.59,0,.72.19.76.26.17.26.56,1.42-1.3,5.44-2.86,6.18-11.63,9.88-15.1,11.13.43-3,2.1-9.88,8.29-13.67,4.26-2.61,6.35-3.16,7.35-3.16m0-1c-1.65,0-4.32,1.13-7.87,3.31-8.6,5.26-8.93,16-8.93,16s13.35-3.92,17.17-12.16c2.24-4.84,2-7.12-.37-7.12Z"/><path class="cls-2" d="M175.57,22.15c-2.9-.38-13.66-2.19-18.11-8.32-2.67-3.68-2.62-5.12-2.35-5.65s.87-.69,1.89-.69a23.2,23.2,0,0,1,7.23,1.77C171.93,12.11,174.84,19.79,175.57,22.15Z"/><path class="cls-2" d="M157,8c1.07,0,3.17.31,7.06,1.75,6.79,2.51,9.76,8.94,10.78,11.81-3.66-.56-13-2.49-17-8-2.76-3.79-2.41-4.94-2.31-5.13S156.22,8,157,8m0-1c-3.25,0-3.46,2.3.06,7.15,5.33,7.35,19.19,8.6,19.19,8.6s-2.4-10.44-11.84-13.94A23.88,23.88,0,0,0,157,7Z"/><path class="cls-2" d="M178.53,49.4c-2.9-.39-13.66-2.19-18.11-8.32-2.67-3.68-2.62-5.12-2.35-5.65s.87-.7,1.89-.7a23.49,23.49,0,0,1,7.23,1.77C174.88,39.35,177.8,47,178.53,49.4Z"/><path class="cls-2" d="M160,35.23c1.07,0,3.17.3,7.06,1.74,6.79,2.52,9.76,9,10.78,11.82-3.66-.56-13-2.5-17-8-2.75-3.8-2.4-4.94-2.3-5.14s.66-.42,1.44-.42m0-1c-3.25,0-3.46,2.3.06,7.14,5.33,7.35,19.19,8.61,19.19,8.61S176.81,39.54,167.37,36A23.59,23.59,0,0,0,160,34.23Z"/><path class="cls-2" d="M178.23,77.92c-3.79,0-13.12-.52-18-5.34-3.31-3.29-3.42-4.71-3.19-5.27s1.44-1,3.29-1a32.46,32.46,0,0,1,5.86.7c8,1.58,12.15,8.71,13.25,10.92l-1.24,0Z"/><path class="cls-2" d="M160.36,66.78a31.47,31.47,0,0,1,5.76.69c7.1,1.4,11.07,7.28,12.53,9.94h-.42c-3.73,0-12.9-.5-17.61-5.18-3.48-3.45-3.14-4.61-3.09-4.73.14-.35,1-.72,2.83-.72m0-1c-4.82,0-5.32,2.32-.45,7.16s14.24,5.47,18.32,5.47c1.24,0,2,0,2,0s-4-9.92-13.92-11.87a32.46,32.46,0,0,0-5.95-.71Z"/><path class="cls-2" d="M174.27,103.31c-3.79,0-13.12-.52-18-5.34-3.31-3.29-3.43-4.71-3.2-5.27s1.45-1,3.29-1a32.36,32.36,0,0,1,5.86.7c8,1.58,12.16,8.71,13.25,10.92l-1.23,0Z"/><path class="cls-2" d="M156.39,92.17a30.76,30.76,0,0,1,5.77.7c7.1,1.39,11.06,7.27,12.53,9.93h-.42c-3.73,0-12.9-.51-17.62-5.19-3.47-3.45-3.13-4.61-3.09-4.73.15-.35,1-.72,2.83-.72m0-1c-4.81,0-5.32,2.32-.44,7.16s14.23,5.48,18.32,5.48c1.24,0,2-.06,2-.06s-4-9.92-13.92-11.87a32.55,32.55,0,0,0-6-.71Z"/><path class="cls-2" d="M171.7,131.3c-3.79,0-13.12-.52-18-5.33-3.32-3.29-3.43-4.72-3.2-5.27s1.44-1,3.29-1a32.46,32.46,0,0,1,5.86.7c8,1.58,12.16,8.71,13.25,10.91l-1.23,0Z"/><path class="cls-2" d="M153.82,120.17a31.28,31.28,0,0,1,5.76.69c7.11,1.4,11.07,7.27,12.54,9.94h-.43c-3.72,0-12.9-.5-17.61-5.18-3.47-3.45-3.14-4.61-3.09-4.73.15-.35,1-.72,2.83-.72m0-1c-4.81,0-5.32,2.31-.44,7.16s14.23,5.47,18.31,5.47c1.25,0,2-.05,2-.05s-4-9.93-13.92-11.87a32.55,32.55,0,0,0-6-.71Z"/><path class="cls-2" d="M177,159.67c-3.79,0-13.12-.52-18-5.33-3.31-3.3-3.42-4.72-3.19-5.27s1.44-1,3.29-1a31.72,31.72,0,0,1,5.86.71c8,1.58,12.15,8.7,13.25,10.91l-1.24,0Z"/><path class="cls-2" d="M159.16,148.53a31.53,31.53,0,0,1,5.76.7c7.1,1.39,11.07,7.27,12.53,9.94H177c-3.73,0-12.9-.51-17.61-5.19-3.48-3.45-3.14-4.6-3.09-4.72.14-.35,1-.73,2.83-.73m0-1c-4.82,0-5.32,2.32-.45,7.16S173,160.17,177,160.17c1.25,0,2,0,2,0s-4-9.93-13.93-11.87a31.64,31.64,0,0,0-6-.72Z"/><path class="cls-2" d="M180.88,184.8c-3.79,0-13.12-.52-18-5.33-3.31-3.3-3.42-4.72-3.19-5.28s1.44-1,3.29-1a31.53,31.53,0,0,1,5.85.71c8,1.58,12.16,8.7,13.25,10.91l-1.23,0Z"/><path class="cls-2" d="M163,173.66a31.63,31.63,0,0,1,5.76.7c7.1,1.39,11.07,7.27,12.53,9.93h-.42c-3.73,0-12.9-.51-17.62-5.19-3.47-3.45-3.13-4.61-3.08-4.73.14-.34,1-.72,2.83-.72m0-1c-4.82,0-5.33,2.32-.45,7.16s14.24,5.48,18.32,5.48c1.24,0,2-.06,2-.06s-4-9.92-13.92-11.86a31.74,31.74,0,0,0-6-.72Z"/><path class="cls-2" d="M186.66,210.29c-3.11,0-13.63-.42-18.77-5.76-3.22-3.35-3.31-4.78-3.08-5.33s1.31-1,3-1a30,30,0,0,1,6.15.84c8,1.77,11.95,9,13,11.22Z"/><path class="cls-2" d="M167.82,198.73a29.69,29.69,0,0,1,6,.83c7.07,1.56,10.9,7.53,12.3,10.22-3.55,0-13.15-.65-17.91-5.59-3.38-3.52-3-4.67-3-4.79.14-.33.88-.67,2.55-.67m0-1c-4.52,0-4.94,2.31-.29,7.15,5.24,5.45,15.75,5.91,19.13,5.91.68,0,1.07,0,1.07,0s-3.81-10-13.65-12.19a31,31,0,0,0-6.26-.85Z"/><path class="cls-2" d="M190.69,237c-2.88-.51-13.54-2.83-17.69-9.16-2.48-3.77-2.38-5.21-2.09-5.73s.78-.64,1.65-.64c1.61,0,4.1.72,7.42,2.12C187.51,226.8,190.07,234.62,190.69,237Z"/><path class="cls-2" d="M172.56,222c1.06,0,3.17.36,7.22,2.08,6.66,2.84,9.33,9.4,10.21,12.31-3.62-.73-12.84-3.09-16.58-8.79-2.55-3.89-2.17-5-2.06-5.23s.83-.37,1.21-.37m0-1c-3,0-3.16,2.3,0,7.15,5,7.59,18.76,9.5,18.76,9.5s-1.9-10.54-11.17-14.49c-3.35-1.42-5.92-2.16-7.61-2.16Z"/><path class="cls-2" d="M190.54,261c-2.91-.31-13.71-1.84-18.31-7.85-2.78-3.63-2.75-5.06-2.49-5.6s.93-.74,2-.74a24.25,24.25,0,0,1,7.1,1.6C186.63,251.07,189.75,258.68,190.54,261Z"/><path class="cls-2" d="M171.78,247.33a23.91,23.91,0,0,1,6.94,1.57c6.85,2.34,10,8.69,11.07,11.53-3.66-.47-13-2.16-17.17-7.56-2.86-3.74-2.53-4.88-2.43-5.08s.74-.46,1.59-.46m0-1c-3.44,0-3.66,2.3.05,7.15,5.52,7.21,19.41,8.11,19.41,8.11S188.58,251.21,179,248a24.76,24.76,0,0,0-7.26-1.62Z"/><path class="cls-2" d="M188.32,285.84c-2.88-.46-13.59-2.57-17.86-8.82-2.56-3.73-2.48-5.17-2.2-5.7s.82-.66,1.75-.66c1.61,0,4.08.67,7.34,2C185,275.7,187.66,283.47,188.32,285.84Z"/><path class="cls-2" d="M170,271.16c1.06,0,3.17.34,7.16,1.94,6.71,2.71,9.5,9.22,10.44,12.11-3.63-.66-12.9-2.85-16.74-8.47-2.64-3.85-2.27-5-2.17-5.19.19-.35,1-.39,1.31-.39m0-1c-3.08,0-3.28,2.3,0,7.15,5.13,7.49,19,9.14,19,9.14s-2.1-10.51-11.45-14.27c-3.3-1.33-5.85-2-7.53-2Z"/><path class="cls-2" d="M185.35,312.7c-2.87-.57-13.5-3-17.55-9.43-2.42-3.8-2.3-5.24-2-5.76s.76-.62,1.59-.62c1.61,0,4.11.75,7.46,2.23C182.33,302.44,184.76,310.3,185.35,312.7Z"/><path class="cls-2" d="M167.38,297.39c1.06,0,3.17.38,7.26,2.19,6.61,2.93,9.18,9.54,10,12.46-3.61-.78-12.79-3.29-16.44-9-2.49-3.92-2.1-5.06-2-5.25s.79-.36,1.15-.36m0-1c-2.89,0-3.09,2.3,0,7.15,4.87,7.66,18.62,9.78,18.62,9.78s-1.74-10.57-11-14.65c-3.39-1.5-6-2.28-7.66-2.28Z"/><path class="cls-2" d="M185.17,334.54c-2.84-.69-13.33-3.66-17.09-10.24-2.21-3.88-2-5.32-1.74-5.83.08-.14.33-.56,1.42-.56,1.56,0,4.17.89,7.55,2.58C182.64,324.16,184.7,332.12,185.17,334.54Z"/><path class="cls-2" d="M167.76,318.41c1,0,3.15.44,7.33,2.53,6.47,3.24,8.72,10,9.42,12.92-3.57-1-12.62-3.9-16-9.81-2.29-4-1.86-5.14-1.75-5.33s.62-.31,1-.31m0-1c-2.67,0-2.88,2.29-.11,7.14,4.5,7.89,18.14,10.65,18.14,10.65s-1.24-10.64-10.25-15.15c-3.47-1.74-6.11-2.64-7.78-2.64Z"/><path class="cls-2" d="M187.54,359.55c-2.82-.77-13.24-4-16.82-10.67-2.11-3.92-1.91-5.36-1.61-5.87.08-.13.33-.54,1.34-.54s3.28.49,7.59,2.78C185.27,349.1,187.13,357.11,187.54,359.55Z"/><path class="cls-2" d="M170.45,343c1,0,3.14.47,7.35,2.72,6.39,3.41,8.47,10.18,9.1,13.16-3.54-1.05-12.52-4.22-15.74-10.21-2.18-4.05-1.73-5.18-1.62-5.37s.43-.3.91-.3m0-1c-2.56,0-2.78,2.29-.17,7.14,4.3,8,17.86,11.11,17.86,11.11s-1-10.67-9.86-15.41c-3.51-1.87-6.16-2.84-7.83-2.84Z"/><path class="cls-2" d="M192.92,384.34c-2.85-.63-13.41-3.35-17.32-9.84-2.32-3.84-2.17-5.28-1.88-5.8s.73-.59,1.5-.59c1.6,0,4.13.81,7.52,2.41C190.15,374,192.4,381.92,192.92,384.34Z"/><path class="cls-2" d="M175.22,368.61c1.05,0,3.16.41,7.3,2.36,6.55,3.09,9,9.75,9.73,12.7-3.59-.88-12.71-3.6-16.22-9.43-2.39-4-2-5.1-1.87-5.29s.74-.34,1.06-.34m0-1c-2.77,0-3,2.3-.05,7.15,4.69,7.78,18.39,10.22,18.39,10.22s-1.5-10.61-10.61-14.91c-3.43-1.62-6-2.46-7.73-2.46Z"/><path class="cls-2" d="M198.85,409.23c.26-2.46,1.64-10.56,8.63-14.84,4.36-2.68,6.55-3.24,7.61-3.24a1.29,1.29,0,0,1,1.18.49c.32.5.58,1.94-1.26,5.93C211.82,404.44,201.62,408.29,198.85,409.23Z"/><path class="cls-2" d="M215.09,391.65h0c.59,0,.72.2.76.26.16.26.56,1.42-1.3,5.45-2.86,6.18-11.63,9.87-15.1,11.13.43-3,2.1-9.88,8.29-13.68,4.26-2.61,6.35-3.16,7.35-3.16m0-1c-1.65,0-4.32,1.14-7.87,3.31-8.6,5.26-8.93,16-8.93,16s13.35-3.91,17.17-12.15c2.24-4.84,2-7.13-.37-7.13Z"/><path class="cls-2" d="M196.3,409.12c-2.85-.63-13.41-3.35-17.32-9.84-2.32-3.83-2.17-5.28-1.88-5.79s.73-.59,1.5-.59c1.6,0,4.13.81,7.52,2.41C193.54,398.81,195.78,406.71,196.3,409.12Z"/><path class="cls-2" d="M178.6,393.4c1.05,0,3.16.41,7.3,2.36,6.55,3.09,9,9.75,9.73,12.69-3.59-.87-12.71-3.59-16.22-9.42-2.39-4-2-5.11-1.87-5.3s.74-.33,1.06-.33m0-1c-2.77,0-3,2.29,0,7.14,4.69,7.78,18.39,10.22,18.39,10.22s-1.5-10.61-10.61-14.91c-3.43-1.61-6.05-2.45-7.73-2.45Z"/><path class="cls-2" d="M202.23,431.76c.26-2.46,1.64-10.56,8.63-14.84,4.36-2.67,6.55-3.23,7.61-3.23a1.29,1.29,0,0,1,1.18.49c.32.5.58,1.93-1.27,5.92C215.2,427,205,430.82,202.23,431.76Z"/><path class="cls-2" d="M218.47,414.19h0c.59,0,.72.19.76.25.16.26.56,1.43-1.3,5.45-2.86,6.18-11.63,9.87-15.1,11.13.44-3,2.11-9.89,8.29-13.67,4.26-2.62,6.35-3.16,7.35-3.16m0-1c-1.65,0-4.32,1.13-7.87,3.3-8.6,5.27-8.93,16-8.93,16s13.35-3.91,17.17-12.15c2.24-4.84,2-7.12-.37-7.12Z"/><path class="cls-2" d="M199.68,431.65c-2.85-.63-13.41-3.35-17.32-9.83-2.32-3.84-2.17-5.28-1.88-5.8s.73-.59,1.5-.59c1.6,0,4.13.81,7.52,2.41C196.91,421.33,199.16,429.24,199.68,431.65Z"/><path class="cls-2" d="M182,415.93c1.05,0,3.16.41,7.3,2.36,6.55,3.09,9,9.75,9.73,12.69-3.59-.87-12.71-3.59-16.22-9.42-2.39-4-2-5.11-1.87-5.29s.74-.34,1.06-.34m0-1c-2.77,0-3,2.29,0,7.14,4.69,7.78,18.38,10.22,18.38,10.22s-1.49-10.61-10.6-14.9c-3.43-1.62-6.05-2.46-7.73-2.46Z"/><path class="cls-3" d="M172.11.08c3.7,24.12,7.41,48.53,5.36,72.86-1.22,14.46-4.47,28.74-5,43.25-.63,18.66,3.31,37.13,7,55.42,6.5,32.07,12.36,64.74,9.76,97.36-1.49,18.67-5.74,37.12-5.84,55.86-.26,47.92,26.29,97.1,9.1,141.79"/><path d="M193,2.53h0c.36,0,.83.05,1,.32s.55,1.34-1.74,5.38c-3.38,6-12.44,8.91-16,9.87.69-3,2.95-9.76,9.43-13C189.85,3,192,2.53,193,2.53m0-1c-1.67,0-4.31.91-7.78,2.65C176.21,8.72,175,19.45,175,19.45s13.64-2.78,18.15-10.73c2.77-4.88,2.56-7.19-.11-7.19Z"/><path d="M196.38,29.77h0c.36,0,.83.05,1,.32s.55,1.34-1.74,5.38c-3.38,6-12.44,8.91-16,9.87.69-3,2.95-9.76,9.43-13,4.18-2.11,6.29-2.55,7.33-2.55m0-1c-1.67,0-4.31.91-7.78,2.65-9,4.54-10.26,15.27-10.26,15.27S192,43.91,196.49,36c2.77-4.88,2.56-7.19-.11-7.19Z"/><path d="M196.68,61.74h0c1,0,1.62.19,1.77.5s.41,1.36-2.57,5.07c-4.28,5.33-13.69,6.79-17.36,7.16,1.16-2.82,4.46-9.16,11.38-11.33a24.71,24.71,0,0,1,6.78-1.4m0-1a25.77,25.77,0,0,0-7.08,1.44c-9.62,3-12.55,13.41-12.55,13.41s13.9-.54,19.61-7.66c3.92-4.87,3.67-7.19,0-7.19Z"/><path d="M193.3,87.85h0c1,0,1.62.18,1.77.5s.41,1.36-2.57,5.06c-4.28,5.34-13.69,6.8-17.36,7.17,1.16-2.83,4.46-9.16,11.38-11.34a25,25,0,0,1,6.78-1.39m0-1a25.4,25.4,0,0,0-7.08,1.44c-9.62,3-12.55,13.41-12.55,13.41s13.9-.54,19.61-7.66c3.92-4.88,3.67-7.19,0-7.19Z"/><path d="M193.3,116.22h0c1,0,1.62.19,1.77.5s.41,1.36-2.57,5.07c-4.28,5.33-13.69,6.79-17.36,7.16,1.16-2.82,4.46-9.16,11.38-11.33a24.71,24.71,0,0,1,6.78-1.4m0-1a25.77,25.77,0,0,0-7.08,1.44c-9.62,3-12.55,13.41-12.55,13.41s13.9-.54,19.61-7.65c3.92-4.88,3.67-7.2,0-7.2Z"/><path d="M196.68,144.6h0c1,0,1.62.18,1.77.5s.41,1.36-2.57,5.06c-4.28,5.34-13.69,6.8-17.36,7.17,1.16-2.83,4.46-9.16,11.38-11.34a25,25,0,0,1,6.78-1.39m0-1A25.4,25.4,0,0,0,189.6,145c-9.62,3-12.55,13.41-12.55,13.41s13.9-.54,19.61-7.66c3.92-4.88,3.67-7.19,0-7.19Z"/><path d="M201.19,169.57h0c.95,0,1.61.18,1.76.5s.41,1.36-2.56,5.07c-4.28,5.33-13.69,6.79-17.37,7.16,1.17-2.83,4.47-9.16,11.39-11.34a24.93,24.93,0,0,1,6.78-1.39m0-1a25.77,25.77,0,0,0-7.08,1.44c-9.62,3-12.55,13.41-12.55,13.41s13.9-.54,19.61-7.66c3.91-4.88,3.66-7.19,0-7.19Z"/><path d="M206.84,194.35h0c.86,0,1.46.17,1.61.46s.43,1.36-2.45,5.12c-4.16,5.43-13.54,7.11-17.2,7.57,1.1-2.86,4.25-9.26,11.12-11.6a23.83,23.83,0,0,1,6.92-1.55m0-1a24.7,24.7,0,0,0-7.23,1.6c-9.55,3.25-12.24,13.7-12.24,13.7s13.88-.86,19.43-8.11c3.73-4.88,3.51-7.19,0-7.19Z"/><path d="M207.42,217.81h0c.45,0,.73.09.85.28s.53,1.44-1.5,5.45c-3.1,6.11-12,9.5-15.52,10.63.55-3,2.47-9.88,8.81-13.47,4.24-2.39,6.34-2.89,7.36-2.89m0-1c-1.66,0-4.32,1-7.85,3-8.79,5-9.53,15.74-9.53,15.74s13.49-3.43,17.62-11.58c2.47-4.88,2.23-7.18-.24-7.18Z"/><path d="M208.87,243.36h0c.33,0,.91,0,1.08.34s.52,1.34-1.89,5.34c-3.52,5.87-12.65,8.59-16.24,9.46.77-3,3.2-9.69,9.76-12.78,4.13-1.95,6.25-2.36,7.29-2.36m0-1c-1.68,0-4.29.84-7.72,2.45-9.12,4.31-10.64,15-10.64,15s13.7-2.42,18.41-10.24c2.94-4.89,2.74-7.2,0-7.2Z"/><path d="M205.26,267.9h0c.48,0,.79.1.9.29s.57,1.34-1.6,5.43c-3.21,6.05-12.18,9.26-15.72,10.32.62-3,2.68-9.84,9.07-13.29,4.22-2.27,6.33-2.75,7.35-2.75m0-1c-1.66,0-4.31,1-7.82,2.87-8.89,4.8-9.83,15.55-9.83,15.55s13.55-3.16,17.84-11.23c2.59-4.88,2.36-7.19-.19-7.19Z"/><path d="M202,295.36h0c.36,0,.83.05,1,.31s.55,1.35-1.74,5.39c-3.38,6-12.43,8.92-16,9.88.7-3,2.95-9.76,9.43-13,4.18-2.11,6.29-2.55,7.33-2.55m0-1c-1.67,0-4.31.91-7.78,2.66-9,4.54-10.25,15.26-10.25,15.26s13.64-2.78,18.14-10.73c2.77-4.88,2.56-7.19-.11-7.19Z"/><path d="M203.46,319.21h0c.86,0,1.47.17,1.61.46s.43,1.36-2.45,5.12c-4.17,5.43-13.55,7.09-17.21,7.55,1.09-2.85,4.24-9.25,11.14-11.59a24,24,0,0,1,6.91-1.54m0-1a25,25,0,0,0-7.23,1.59C186.67,323,184,333.49,184,333.49s13.88-.85,19.44-8.09c3.74-4.88,3.52-7.19,0-7.19Z"/><path d="M203.51,340.86h0c.5,0,.62.17.66.24.18.26.62,1.42-1,5.54-2.56,6.36-11.14,10.52-14.55,11.95.29-3,1.61-10.06,7.62-14.18,4.49-3.09,6.5-3.55,7.3-3.55m0-1c-1.63,0-4.31,1.28-7.87,3.72-8.32,5.72-8.13,16.51-8.13,16.51s13.15-4.59,16.55-13.07c1.95-4.86,1.64-7.16-.55-7.16Z"/><path d="M209.46,366.2h0c.59,0,.71.19.75.26.17.26.57,1.43-1.29,5.49-2.86,6.23-11.63,10-15.11,11.22.45-3,2.12-10,8.3-13.79,4.26-2.63,6.35-3.18,7.35-3.18m0-1c-1.65,0-4.33,1.14-7.88,3.33-8.59,5.3-8.92,16.09-8.92,16.09s13.35-3.94,17.17-12.25c2.23-4.87,2-7.17-.37-7.17Z"/><path d="M154.75,4.63c1.07,0,3.16.31,7.05,1.76,6.8,2.53,9.77,9,10.79,11.92-3.65-.57-13-2.51-17-8.07-2.76-3.83-2.4-5-2.3-5.18s.66-.43,1.44-.43m0-1c-3.26,0-3.47,2.32.05,7.2,5.34,7.4,19.2,8.67,19.2,8.67S171.6,9,162.15,5.45a23.69,23.69,0,0,0-7.4-1.82Z"/><path d="M157.71,32.08c1.07,0,3.16.31,7,1.76,6.8,2.53,9.77,9,10.79,11.91-3.65-.56-13-2.51-17-8.06-2.76-3.83-2.4-5-2.3-5.18s.66-.43,1.44-.43m0-1c-3.26,0-3.47,2.31,0,7.2C163.1,45.68,177,47,177,47s-2.4-10.52-11.85-14.05a23.69,23.69,0,0,0-7.4-1.82Z"/><path d="M158.1,63.87a30.57,30.57,0,0,1,5.76.7C171,66,175,71.91,176.4,74.59H176c-3.73,0-12.9-.5-17.62-5.22-3.48-3.48-3.13-4.65-3.08-4.78.14-.35,1-.72,2.82-.72m0-1c-4.81,0-5.32,2.33-.44,7.21s14.23,5.51,18.32,5.51c1.24,0,2,0,2,0s-4-10-13.92-12a32.55,32.55,0,0,0-6-.71Z"/><path d="M154.14,89.45a30.57,30.57,0,0,1,5.76.7c7.12,1.4,11.08,7.34,12.54,10H172c-3.72,0-12.89-.51-17.61-5.23-3.48-3.48-3.14-4.65-3.09-4.78.15-.35,1-.72,2.83-.72m0-1c-4.82,0-5.32,2.33-.44,7.21s14.23,5.52,18.31,5.52c1.25,0,2-.06,2-.06s-4-10-13.92-12a32.55,32.55,0,0,0-6-.71Z"/><path d="M151.57,117.65a31.43,31.43,0,0,1,5.76.7c7.12,1.41,11.08,7.35,12.54,10h-.43c-3.72,0-12.9-.51-17.61-5.22-3.48-3.49-3.14-4.66-3.09-4.78.15-.35,1-.73,2.83-.73m0-1c-4.82,0-5.32,2.34-.45,7.21s14.24,5.52,18.32,5.52c1.25,0,2,0,2,0s-4-10-13.93-12a32.5,32.5,0,0,0-6-.72Z"/><path d="M156.9,146.23a31.62,31.62,0,0,1,5.77.7c7.11,1.41,11.08,7.35,12.53,10h-.42c-3.73,0-12.9-.51-17.61-5.22-3.49-3.49-3.14-4.66-3.09-4.78.14-.35,1-.73,2.82-.73m0-1c-4.81,0-5.32,2.33-.44,7.21S170.7,158,174.78,158c1.24,0,2-.05,2-.05s-4-10-13.92-12a31.83,31.83,0,0,0-6-.72Z"/><path d="M160.75,171.55a30.57,30.57,0,0,1,5.76.7c7.12,1.4,11.08,7.34,12.54,10h-.43c-3.72,0-12.89-.51-17.61-5.23-3.48-3.48-3.14-4.65-3.08-4.78.14-.35,1-.72,2.82-.72m0-1c-4.81,0-5.32,2.33-.44,7.21s14.23,5.52,18.31,5.52c1.25,0,2-.06,2-.06s-4-10-13.92-11.95a31.83,31.83,0,0,0-6-.72Z"/><path d="M165.57,196.8a29.21,29.21,0,0,1,6,.84c7.08,1.57,10.91,7.6,12.31,10.31-3.55,0-13.16-.65-17.92-5.63-3.32-3.48-3.06-4.65-3-4.85s.88-.67,2.55-.67m0-1c-4.52,0-4.94,2.33-.29,7.21,5.24,5.49,15.75,6,19.12,6,.68,0,1.07,0,1.07,0s-3.8-10.09-13.64-12.28a30.46,30.46,0,0,0-6.26-.86Z"/><path d="M170.31,220.22c1.06,0,3.17.36,7.21,2.09,6.68,2.86,9.34,9.49,10.22,12.42-3.62-.73-12.84-3.12-16.58-8.86-2.56-3.93-2.17-5.09-2.06-5.28s.83-.37,1.21-.37m0-1c-3,0-3.17,2.31,0,7.2,5,7.65,18.77,9.57,18.77,9.57s-1.9-10.62-11.17-14.6c-3.35-1.43-5.93-2.17-7.61-2.17Z"/><path d="M169.53,245.77a23.86,23.86,0,0,1,6.93,1.57c6.86,2.37,10,8.78,11.08,11.64-3.66-.47-13-2.18-17.17-7.62-2.87-3.77-2.53-4.93-2.43-5.13s.73-.46,1.59-.46m0-1c-3.44,0-3.66,2.31.05,7.19,5.52,7.27,19.4,8.18,19.4,8.18s-2.66-10.46-12.19-13.74a24.52,24.52,0,0,0-7.26-1.63Z"/><path d="M167.76,269.78c1.06,0,3.16.33,7.15,2,6.73,2.73,9.52,9.3,10.45,12.22-3.63-.67-12.9-2.88-16.74-8.54-2.64-3.89-2.27-5.05-2.17-5.24.19-.36,1-.39,1.31-.39m0-1c-3.09,0-3.29,2.31,0,7.19,5.13,7.55,19,9.21,19,9.21s-2.11-10.58-11.45-14.38c-3.31-1.33-5.85-2-7.53-2Z"/><path d="M165.13,296.2c1.05,0,3.17.38,7.25,2.21,6.63,2.95,9.19,9.62,10,12.57-3.61-.8-12.79-3.32-16.44-9.12-2.5-4-2.1-5.11-2-5.3s.79-.36,1.15-.36m0-1c-2.89,0-3.09,2.31,0,7.2,4.87,7.72,18.62,9.86,18.62,9.86s-1.74-10.65-11-14.77c-3.39-1.51-6-2.29-7.66-2.29Z"/><path d="M165.51,317.37c1,0,3.14.44,7.32,2.55,6.49,3.27,8.74,10.06,9.43,13-3.56-1-12.61-3.92-16-9.89-2.29-4-1.86-5.19-1.75-5.38s.62-.32,1-.32m0-1c-2.67,0-2.88,2.31-.11,7.2,4.5,7.94,18.13,10.73,18.13,10.73S182.3,323.58,173.29,319c-3.48-1.75-6.11-2.66-7.78-2.66Z"/><path d="M168.2,342.12c1,0,3.13.48,7.35,2.74,6.4,3.43,8.48,10.27,9.1,13.27-3.55-1.05-12.52-4.25-15.75-10.29-2.18-4.08-1.72-5.23-1.61-5.42s.43-.3.91-.3m0-1c-2.56,0-2.78,2.31-.18,7.19,4.3,8.06,17.87,11.19,17.87,11.19s-1-10.75-9.87-15.52c-3.5-1.88-6.16-2.86-7.82-2.86Z"/><path d="M173,368c1.05,0,3.16.42,7.3,2.38,6.55,3.12,9,9.84,9.73,12.8-3.59-.87-12.71-3.62-16.22-9.49-2.4-4-2-5.16-1.87-5.35s.66-.34,1.06-.34m0-1c-2.77,0-3,2.32-.05,7.2,4.68,7.84,18.38,10.3,18.38,10.3s-1.49-10.69-10.6-15c-3.44-1.63-6-2.48-7.73-2.48Z"/><path d="M212.84,391.17h0c.59,0,.71.19.75.26.17.26.57,1.43-1.29,5.49-2.86,6.23-11.63,10-15.11,11.22.45-3,2.12-10,8.3-13.79,4.26-2.63,6.35-3.18,7.35-3.18m0-1c-1.65,0-4.33,1.14-7.88,3.33-8.59,5.3-8.92,16.09-8.92,16.09s13.35-3.94,17.17-12.25c2.23-4.87,2-7.17-.37-7.17Z"/><path d="M176.35,392.92c1.05,0,3.16.42,7.3,2.38,6.55,3.12,9,9.84,9.73,12.81-3.59-.88-12.71-3.63-16.23-9.5-2.39-4-2-5.16-1.86-5.35s.66-.34,1.06-.34m0-1c-2.77,0-3,2.32,0,7.2,4.68,7.84,18.38,10.3,18.38,10.3s-1.49-10.69-10.6-15c-3.44-1.63-6.05-2.48-7.73-2.48Z"/><path d="M216.22,413.87h0c.59,0,.71.19.75.26.17.26.57,1.43-1.29,5.5-2.86,6.22-11.63,9.95-15.11,11.21.45-3,2.12-10,8.3-13.79,4.26-2.63,6.35-3.18,7.35-3.18m0-1c-1.65,0-4.33,1.14-7.88,3.33-8.59,5.3-8.92,16.09-8.92,16.09s13.35-3.94,17.17-12.25c2.23-4.87,2-7.17-.37-7.17Z"/><path d="M179.73,415.62c1.05,0,3.16.42,7.3,2.38,6.55,3.12,9,9.84,9.73,12.81-3.59-.88-12.71-3.63-16.23-9.5-2.39-4-2-5.16-1.86-5.35s.66-.34,1.06-.34m0-1c-2.77,0-3,2.32,0,7.2,4.68,7.84,18.38,10.3,18.38,10.3s-1.49-10.69-10.6-15c-3.44-1.63-6.05-2.48-7.73-2.48Z"/><path class="cls-1" d="M252.1,273.27c9.17,41.82,2.41,83.5.15,125.19-1.12,23.66,6.76,46.19,11.82,68.16"/><path class="cls-2" d="M255.57,291.84c.47-2.42,2.54-10.38,9.86-14,3.38-1.68,6-2.58,7.56-2.58,1.09,0,1.34.43,1.42.57.3.51.46,2-1.75,5.83C268.9,288.18,258.41,291.15,255.57,291.84Z"/><path class="cls-2" d="M273,275.71h0c.36,0,.83.06,1,.32s.53,1.33-1.75,5.33c-3.38,5.91-12.44,8.84-16,9.8.7-3,2.95-9.68,9.43-12.92,4.18-2.09,6.29-2.53,7.33-2.53m0-1c-1.67,0-4.31.9-7.78,2.64-9,4.5-10.26,15.15-10.26,15.15s13.64-2.76,18.14-10.65c2.78-4.84,2.57-7.14-.1-7.14Z"/><path class="cls-2" d="M259,318.88c.47-2.42,2.54-10.38,9.86-14.05,3.38-1.69,6-2.58,7.56-2.58,1.09,0,1.34.43,1.42.57.3.51.46,1.95-1.75,5.82C272.28,315.22,261.79,318.18,259,318.88Z"/><path class="cls-2" d="M276.37,302.75h0c.36,0,.83.06,1,.32s.53,1.32-1.75,5.33c-3.38,5.91-12.44,8.84-16,9.79.7-3,2.95-9.67,9.43-12.91,4.18-2.09,6.29-2.53,7.33-2.53m0-1c-1.67,0-4.31.9-7.78,2.64-9,4.5-10.26,15.14-10.26,15.14s13.64-2.75,18.14-10.64c2.78-4.85,2.56-7.14-.1-7.14Z"/><path class="cls-2" d="M257.75,347.68c.85-2.32,4.17-9.84,12-12.29a25.47,25.47,0,0,1,6.93-1.4c.84,0,1.91.13,2.22.78s.26,2-2.63,5.54C271.5,346.2,260.67,347.45,257.75,347.68Z"/><path class="cls-2" d="M276.67,334.49h0c1,0,1.62.18,1.77.49s.4,1.35-2.57,5c-4.28,5.29-13.68,6.74-17.36,7.11,1.17-2.81,4.47-9.08,11.38-11.24a24.83,24.83,0,0,1,6.78-1.38m0-1a25.68,25.68,0,0,0-7.08,1.43c-9.62,3-12.55,13.31-12.55,13.31s13.9-.54,19.61-7.6c3.91-4.85,3.66-7.14,0-7.14Z"/><path class="cls-2" d="M254.37,373.59c.85-2.32,4.17-9.84,12-12.29a25.47,25.47,0,0,1,6.93-1.4c.84,0,1.91.13,2.22.78s.26,2-2.63,5.54C268.12,372.11,257.29,373.36,254.37,373.59Z"/><path class="cls-2" d="M273.29,360.4h0c1,0,1.62.18,1.77.49s.4,1.35-2.57,5c-4.28,5.29-13.68,6.74-17.36,7.11,1.17-2.81,4.47-9.08,11.38-11.24a24.9,24.9,0,0,1,6.78-1.38m0-1a25.68,25.68,0,0,0-7.08,1.43c-9.62,3-12.55,13.31-12.55,13.31s13.9-.54,19.61-7.6c3.91-4.84,3.66-7.14,0-7.14Z"/><path class="cls-2" d="M254.37,401.75c.85-2.31,4.17-9.84,12-12.28a25.56,25.56,0,0,1,6.93-1.41c.84,0,1.91.14,2.22.78s.26,2-2.63,5.55C268.12,400.28,257.29,401.52,254.37,401.75Z"/><path class="cls-2" d="M273.29,388.56h0c1,0,1.62.19,1.77.5s.4,1.34-2.57,5c-4.28,5.3-13.68,6.74-17.36,7.11,1.17-2.81,4.47-9.07,11.38-11.23a25,25,0,0,1,6.78-1.39m0-1a26.06,26.06,0,0,0-7.08,1.43c-9.62,3-12.55,13.31-12.55,13.31s13.9-.53,19.61-7.6c3.91-4.84,3.66-7.14,0-7.14Z"/><path class="cls-2" d="M257.75,429.92c.85-2.32,4.17-9.84,12-12.29a25.47,25.47,0,0,1,6.93-1.4c.84,0,1.91.13,2.22.78s.26,2-2.63,5.54C271.5,428.44,260.67,429.69,257.75,429.92Z"/><path class="cls-2" d="M276.67,416.73h0c1,0,1.62.18,1.77.49s.4,1.35-2.57,5c-4.28,5.29-13.68,6.74-17.36,7.11,1.17-2.81,4.47-9.08,11.38-11.24a24.83,24.83,0,0,1,6.78-1.38m0-1a25.68,25.68,0,0,0-7.08,1.43c-9.62,3-12.55,13.31-12.55,13.31s13.9-.54,19.61-7.6c3.91-4.84,3.66-7.14,0-7.14Z"/><path class="cls-2" d="M262.26,454.71c.85-2.32,4.16-9.85,12-12.29a25.62,25.62,0,0,1,6.94-1.41c.84,0,1.91.14,2.22.78s.25,2-2.63,5.55C276,453.23,265.17,454.47,262.26,454.71Z"/><path class="cls-2" d="M281.18,441.51h0c1,0,1.62.19,1.76.5s.41,1.34-2.56,5c-4.28,5.3-13.69,6.74-17.36,7.11,1.16-2.81,4.46-9.07,11.37-11.23a25,25,0,0,1,6.79-1.39m0-1a26.19,26.19,0,0,0-7.09,1.43c-9.61,3-12.55,13.31-12.55,13.31s13.91-.53,19.62-7.6c3.91-4.84,3.66-7.14,0-7.14Z"/><path class="cls-2" d="M253.3,292c-2.9-.38-13.65-2.18-18.1-8.31-2.68-3.68-2.62-5.12-2.35-5.65s.87-.7,1.89-.7a23.49,23.49,0,0,1,7.23,1.77C249.66,281.92,252.57,289.61,253.3,292Z"/><path class="cls-2" d="M234.74,277.8c1.07,0,3.16.3,7,1.74,6.79,2.52,9.76,8.95,10.78,11.82-3.65-.56-13-2.5-17-8-2.75-3.79-2.4-4.93-2.31-5.13s.67-.42,1.45-.42m0-1c-3.26,0-3.47,2.3,0,7.14,5.34,7.35,19.19,8.61,19.19,8.61s-2.39-10.44-11.84-13.94a23.61,23.61,0,0,0-7.4-1.81Z"/><path class="cls-2" d="M256.26,319.21c-2.9-.38-13.66-2.19-18.1-8.32-2.68-3.68-2.62-5.12-2.35-5.65s.87-.7,1.89-.7a23.28,23.28,0,0,1,7.23,1.78C252.61,309.17,255.53,316.85,256.26,319.21Z"/><path class="cls-2" d="M237.7,305.05c1.07,0,3.16.3,7.05,1.74,6.79,2.51,9.76,8.94,10.78,11.81-3.65-.56-13-2.49-17-8-2.75-3.79-2.41-4.94-2.31-5.13s.67-.42,1.45-.42m0-1c-3.26,0-3.47,2.29.05,7.14,5.34,7.35,19.19,8.6,19.19,8.6s-2.39-10.44-11.84-13.94a23.81,23.81,0,0,0-7.4-1.8Z"/><path class="cls-2" d="M256,347.73c-3.78,0-13.12-.52-18-5.33-3.32-3.29-3.43-4.72-3.2-5.27s1.44-1,3.29-1a31.72,31.72,0,0,1,5.86.71c8,1.58,12.15,8.7,13.25,10.91l-1.24,0Z"/><path class="cls-2" d="M238.09,336.6a31.28,31.28,0,0,1,5.76.69c7.11,1.39,11.07,7.27,12.53,9.94H256c-3.72,0-12.9-.51-17.61-5.19-3.47-3.45-3.14-4.6-3.09-4.72.15-.35,1-.72,2.83-.72m0-1c-4.82,0-5.32,2.31-.44,7.15s14.23,5.48,18.31,5.48c1.25,0,2-.05,2-.05s-4-9.93-13.92-11.87a32.55,32.55,0,0,0-6-.71Z"/><path class="cls-2" d="M252,373.12c-3.79,0-13.12-.52-18-5.33-3.32-3.29-3.43-4.72-3.2-5.27s1.44-1,3.29-1a31.57,31.57,0,0,1,5.86.7c8,1.58,12.15,8.7,13.25,10.91l-1.24,0Z"/><path class="cls-2" d="M234.13,362a31.28,31.28,0,0,1,5.76.69c7.11,1.4,11.07,7.27,12.53,9.94H252c-3.72,0-12.9-.51-17.61-5.19-3.48-3.45-3.14-4.6-3.09-4.72.14-.35,1-.72,2.83-.72m0-1c-4.82,0-5.32,2.31-.45,7.15s14.24,5.48,18.32,5.48c1.25,0,2-.05,2-.05s-4-9.93-13.93-11.87a32.36,32.36,0,0,0-6-.71Z"/><path class="cls-2" d="M249.43,401.12c-3.79,0-13.12-.52-18-5.33-3.31-3.3-3.42-4.72-3.19-5.28s1.44-1,3.29-1a31.72,31.72,0,0,1,5.86.71c8,1.58,12.15,8.7,13.25,10.91l-1.24,0Z"/><path class="cls-2" d="M231.56,390a31.53,31.53,0,0,1,5.76.7c7.1,1.39,11.07,7.27,12.53,9.94h-.42c-3.73,0-12.9-.51-17.61-5.19-3.48-3.45-3.14-4.6-3.09-4.72.14-.35,1-.73,2.83-.73m0-1c-4.82,0-5.32,2.32-.45,7.16s14.24,5.48,18.32,5.48c1.25,0,2-.06,2-.06s-4-9.92-13.93-11.86a31.64,31.64,0,0,0-5.95-.72Z"/><path class="cls-2" d="M254.76,429.48c-3.78,0-13.12-.52-18-5.33-3.32-3.29-3.43-4.71-3.2-5.27s1.45-1,3.29-1a32.36,32.36,0,0,1,5.86.7c8,1.58,12.16,8.71,13.25,10.91l-1.24,0Z"/><path class="cls-2" d="M236.89,418.35a31.47,31.47,0,0,1,5.77.69c7.1,1.4,11.06,7.27,12.53,9.94h-.43c-3.72,0-12.89-.5-17.61-5.18-3.47-3.45-3.14-4.61-3.09-4.73.15-.35,1-.72,2.83-.72m0-1c-4.81,0-5.32,2.31-.44,7.16S250.68,430,254.76,430c1.25,0,2-.05,2-.05s-4-9.93-13.92-11.87a32.55,32.55,0,0,0-6-.71Z"/><path class="cls-2" d="M258.61,454.61c-3.79,0-13.12-.52-18-5.33-3.32-3.29-3.43-4.72-3.2-5.27s1.44-1,3.29-1a31.57,31.57,0,0,1,5.86.7c8,1.58,12.15,8.7,13.25,10.91l-1.24,0Z"/><path class="cls-2" d="M240.74,443.48a31.28,31.28,0,0,1,5.76.69c7.11,1.4,11.07,7.27,12.53,9.94h-.42c-3.72,0-12.9-.5-17.61-5.18-3.47-3.45-3.14-4.61-3.09-4.73.15-.35,1-.72,2.83-.72m0-1c-4.82,0-5.32,2.31-.44,7.15s14.23,5.48,18.31,5.48c1.25,0,2-.05,2-.05s-4-9.93-13.92-11.87a32.55,32.55,0,0,0-6-.71Z"/><path class="cls-3" d="M249.85,269.89c3.53,22.67,8,45.2,5.78,67.73-1.12,14.65-3.38,28.17-5.63,42.81-1.13,7.89,0,14.65,0,22.53,2.25,21.41,7.89,41.69,12,63.21"/><path d="M270.73,272.34h0c.37,0,.84.06,1,.32s.55,1.34-1.75,5.39c-3.38,5.95-12.43,8.91-16,9.87.7-3,3-9.76,9.43-13,4.19-2.1,6.3-2.55,7.33-2.55m0-1c-1.67,0-4.3.91-7.77,2.66-9,4.54-10.26,15.26-10.26,15.26s13.63-2.78,18.14-10.72c2.77-4.89,2.56-7.2-.11-7.2Z"/><path d="M274.11,299.58h0c.37,0,.84.06,1,.32s.54,1.34-1.75,5.39c-3.38,5.95-12.43,8.91-16,9.87.7-3,2.95-9.76,9.43-13,4.19-2.1,6.3-2.55,7.33-2.55m0-1c-1.67,0-4.3.91-7.78,2.66-9,4.54-10.25,15.26-10.25,15.26s13.63-2.78,18.14-10.72c2.77-4.89,2.56-7.2-.11-7.2Z"/><path d="M274.42,331.56h0c.95,0,1.61.18,1.76.5s.41,1.35-2.56,5.06c-4.28,5.34-13.7,6.8-17.37,7.17,1.16-2.83,4.47-9.16,11.38-11.34a24.67,24.67,0,0,1,6.79-1.39m0-1a25.52,25.52,0,0,0-7.09,1.44c-9.61,3-12.55,13.41-12.55,13.41s13.91-.54,19.62-7.66c3.91-4.88,3.66-7.19,0-7.19Z"/><path d="M271,357.66h0c.95,0,1.61.19,1.76.5s.41,1.36-2.56,5.07c-4.28,5.33-13.7,6.79-17.37,7.16,1.16-2.82,4.47-9.16,11.38-11.33a24.77,24.77,0,0,1,6.79-1.4m0-1A25.9,25.9,0,0,0,264,358.1c-9.61,3-12.55,13.41-12.55,13.41s13.91-.54,19.62-7.66c3.91-4.87,3.66-7.19,0-7.19Z"/><path d="M271,386h0c.95,0,1.61.18,1.76.5s.41,1.36-2.56,5.06c-4.28,5.34-13.7,6.8-17.37,7.17,1.16-2.83,4.47-9.16,11.38-11.34A25.05,25.05,0,0,1,271,386m0-1a25.52,25.52,0,0,0-7.09,1.44c-9.61,3-12.55,13.41-12.55,13.41s13.91-.54,19.62-7.66c3.91-4.88,3.66-7.19,0-7.19Z"/><path d="M274.42,414.41h0c.95,0,1.61.19,1.76.5s.41,1.36-2.56,5.07c-4.28,5.33-13.7,6.79-17.37,7.16,1.16-2.82,4.47-9.16,11.38-11.33a24.77,24.77,0,0,1,6.79-1.4m0-1a25.9,25.9,0,0,0-7.09,1.44c-9.61,3-12.55,13.41-12.55,13.41s13.91-.54,19.62-7.65c3.91-4.88,3.66-7.2,0-7.2Z"/><path d="M278.92,439.38h0c1,0,1.62.19,1.77.5s.41,1.36-2.57,5.07c-4.28,5.33-13.69,6.79-17.36,7.16,1.16-2.82,4.46-9.16,11.38-11.33a24.71,24.71,0,0,1,6.78-1.4m0-1a25.84,25.84,0,0,0-7.08,1.44c-9.62,3-12.55,13.41-12.55,13.41s13.9-.54,19.61-7.65c3.92-4.88,3.67-7.2,0-7.2Z"/><path d="M232.49,274.45c1.07,0,3.16.3,7,1.75,6.8,2.54,9.77,9,10.78,11.92-3.65-.57-13-2.51-17-8.06-2.76-3.83-2.41-5-2.31-5.19s.67-.42,1.45-.42m0-1c-3.26,0-3.47,2.31,0,7.19,5.33,7.41,19.19,8.67,19.19,8.67s-2.39-10.52-11.84-14a23.4,23.4,0,0,0-7.4-1.82Z"/><path d="M235.45,301.9c1.07,0,3.16.3,7.05,1.75,6.8,2.54,9.77,9,10.78,11.92-3.65-.56-13-2.5-17-8.06-2.76-3.83-2.41-5-2.31-5.19s.67-.42,1.45-.42m0-1c-3.26,0-3.47,2.31.05,7.19,5.33,7.41,19.19,8.67,19.19,8.67s-2.39-10.52-11.84-14.05a23.61,23.61,0,0,0-7.4-1.81Z"/><path d="M235.84,333.68a31.53,31.53,0,0,1,5.76.7c7.12,1.41,11.08,7.35,12.54,10h-.43c-3.72,0-12.9-.51-17.61-5.22-3.48-3.49-3.14-4.66-3.09-4.78.15-.35,1-.73,2.83-.73m0-1c-4.82,0-5.32,2.33-.45,7.21s14.24,5.52,18.32,5.52c1.25,0,2-.05,2-.05s-4-10-13.93-12a31.64,31.64,0,0,0-5.95-.72Z"/><path d="M231.88,359.26a31.63,31.63,0,0,1,5.76.7c7.11,1.41,11.08,7.35,12.53,10h-.42c-3.73,0-12.9-.51-17.61-5.22-3.48-3.49-3.14-4.66-3.09-4.78.14-.35,1-.73,2.83-.73m0-1c-4.82,0-5.33,2.33-.45,7.21S245.67,371,249.75,371c1.24,0,2-.05,2-.05s-4-10-13.92-12a31.74,31.74,0,0,0-6-.72Z"/><path d="M229.3,387.47a30.76,30.76,0,0,1,5.77.7c7.11,1.41,11.08,7.34,12.53,10h-.42c-3.73,0-12.9-.51-17.61-5.23-3.49-3.48-3.14-4.65-3.09-4.77.14-.36,1-.73,2.82-.73m0-1c-4.81,0-5.32,2.33-.44,7.21s14.24,5.52,18.32,5.52c1.24,0,2-.06,2-.06s-4-10-13.92-11.95a31.83,31.83,0,0,0-6-.72Z"/><path d="M234.64,416.05a31.28,31.28,0,0,1,5.76.69c7.12,1.41,11.08,7.35,12.54,10h-.43c-3.72,0-12.9-.5-17.61-5.22-3.48-3.48-3.14-4.65-3.09-4.78.15-.35,1-.72,2.83-.72m0-1c-4.82,0-5.32,2.33-.45,7.21s14.24,5.51,18.32,5.51c1.25,0,2,0,2,0s-4-10-13.93-12a32.36,32.36,0,0,0-6-.71Z"/><path d="M238.49,441.36a31.53,31.53,0,0,1,5.76.7c7.11,1.41,11.08,7.35,12.54,10h-.43c-3.73,0-12.9-.51-17.61-5.22-3.48-3.49-3.14-4.66-3.09-4.78.15-.35,1-.73,2.83-.73m0-1c-4.82,0-5.32,2.33-.45,7.21s14.24,5.52,18.32,5.52c1.25,0,2,0,2,0s-4-10-13.93-12a31.64,31.64,0,0,0-5.95-.72Z"/><path class="cls-4" d="M303.4,180.81s-35.64-40.73-35.64-64.91,14-7.63,14-7.63Z"/><path class="cls-4" d="M305.52,180.81s-26.89-47-22.11-70.67,15.23-4.72,15.23-4.72Z"/><path class="cls-4" d="M306.05,180.81S287.37,130,296,107.44s15.81-2.11,15.81-2.11Z"/><path class="cls-4" d="M304.66,180.81s-43.54-32.13-48.72-55.75,12-10.47,12-10.47Z"/><path class="cls-4" d="M303,180.81s-35.47-40.86-35.38-65,14-7.59,14-7.59Z"/><path class="cls-4" d="M303.7,180.81s-28.17-46.21-24-70,15.09-5.14,15.09-5.14Z"/><path class="cls-4" d="M304.86,180.81s-6.27-53.75,7.44-73.67,15.86,1.65,15.86,1.65Z"/><path class="cls-4" d="M305.5,180.81s32.9-43,31.32-67.1-14.47-6.7-14.47-6.7Z"/><path class="cls-4" d="M305.52,180.81s40.73-35.64,43.94-59.61-12.87-9.42-12.87-9.42Z"/><path class="cls-4" d="M305.79,180.81s-2.66-54,12.35-73,15.72,2.7,15.72,2.7Z"/><path class="cls-4" d="M304.44,180.81s10.07-53.17,29.11-68.09S348.19,119,348.19,119Z"/><path class="cls-4" d="M305.55,180.81s44.23-31.18,49.93-54.68-11.81-10.72-11.81-10.72Z"/><path class="cls-4" d="M303,178.27s49.51-21.86,59.73-43.77-9.46-12.84-9.46-12.84Z"/><path d="M257.3,102.62v1h0c3.18,0,7.4,3.28,8.24,4l34.87,69.22c-10.87-9.52-41.71-38.08-45.77-59.06-1.64-8.48-.69-11.83.39-13.14a2.74,2.74,0,0,1,2.27-1v-1m0,0c-3.41,0-6,3.24-3.63,15.32,5,26,49.88,62.87,49.88,62.87L266.34,107s-5.09-4.33-9-4.33Z"/><path d="M286.26,90.61v1c3,0,6.45,5,7.68,7.08l9.22,77.18c-7-12.94-26.26-51-22.94-71.95,1.26-7.93,3.4-12.31,6-12.31v-1m0,0c-2.72,0-5.43,3.09-7,13.16-4.12,26,25.53,77,25.53,77l-9.85-82.44s-4.34-7.76-8.65-7.76Z"/><path d="M246.42,109.66h0c2.65,0,6.36,2.29,7.14,2.79l46.36,64.43c-12.07-8.42-44-32.09-52.57-52.4-4.07-9.69-3.49-12.93-2.78-14a2,2,0,0,1,1.85-.82m0-1c-3.38,0-5.46,3.21,0,16.2,10.8,25.66,57.61,56,57.61,56l-49.78-69.18s-4.54-3-7.84-3Z"/><path d="M268.69,96.66h0c2.88,0,6.78,3.79,8.21,5.44l23.23,74.19c-9.21-11.31-35.05-44.88-35.66-66.19-.24-8.23,1.11-11.4,2.28-12.61a2.6,2.6,0,0,1,1.94-.83m0-1c-3,0-5.55,3.23-5.22,14.46.76,26.48,39.12,70.69,39.12,70.69l-24.8-79.2s-5-6-9.1-6Z"/><path d="M304.84,89.89h0c3.18,0,5.76,6.2,6.57,8.83l-8.18,76.92c-4-14.22-14.31-55.82-6.4-75.27,3.71-9.12,6.61-10.48,8-10.48m0-1c-2.51,0-5.53,2.73-8.94,11.1-9.82,24.16,7.78,80.82,7.78,80.82l8.74-82.18s-2.86-9.74-7.58-9.74Z"/><path d="M313.88,90.69c2.57,0,5.09,4.23,7.08,11.91,5.35,20.68-10.16,59.89-15.86,73.22l1.67-77.6c1.05-2.26,4.12-7.53,7.11-7.53m0-1c-4.4,0-8.11,8.3-8.11,8.3L304,180.81s24.58-52.78,17.94-78.46c-2.5-9.65-5.4-12.66-8.05-12.66Z"/><path d="M329.17,93.82v1h0a2.75,2.75,0,0,1,2,.88c2.12,2.13,2.64,7.56,2.66,9.73L304.16,175.8c.24-14.65,2.08-57.46,15.21-73.44,5.12-6.23,8.16-7.54,9.8-7.54v-1m0,0c-2.38,0-5.77,2.06-10.57,7.91-16.29,19.82-15.47,79.08-15.47,79.08l31.72-75.18s0-11.81-5.68-11.81Z"/><path d="M338.11,98.32a2.74,2.74,0,0,1,2.07.89c1.2,1.24,2.58,4.47,2.29,12.8-.73,21.31-26.83,53.68-36.05,64.48l23.66-73.15c1.4-1.53,5.18-5,8-5m0-1c-4.06,0-8.92,5.51-8.92,5.51l-25.22,78s38.59-42.32,39.5-68.76c.39-11.48-2.25-14.73-5.36-14.73Z"/><path d="M352.16,107.27a3.08,3.08,0,0,1,2.58,1.12c1.09,1.37,2,4.78.05,13.26-4.72,20.67-36.55,46.9-47.61,55.49l37-66.55c.85-.61,4.83-3.32,8-3.32m0-1c-3.88,0-8.72,3.64-8.72,3.64L304,180.81s45.93-33.31,51.78-58.94c2.83-12.4,0-15.6-3.61-15.6Z"/><path class="cls-3" d="M304.67,177.71s-20.36,59.82,0,138.73,8.91,150.18,8.91,150.18"/><ellipse cx="303.4" cy="176.44" rx="7" ry="5.73"/><path class="cls-4" d="M112.57,290.94s-21.91-25-21.91-39.9,8.61-4.69,8.61-4.69Z"/><path class="cls-4" d="M113.87,290.94s-16.53-28.86-13.59-43.44,9.36-2.9,9.36-2.9Z"/><path class="cls-4" d="M114.2,290.94s-11.48-31.22-6.16-45.09,9.72-1.3,9.72-1.3Z"/><path class="cls-4" d="M113.35,290.94s-26.77-19.75-30-34.27,7.4-6.43,7.4-6.43Z"/><path class="cls-4" d="M112.31,290.94S90.5,265.82,90.56,251s8.62-4.66,8.62-4.66Z"/><path class="cls-4" d="M112.75,290.94S95.44,262.54,98,247.89s9.28-3.15,9.28-3.15Z"/><path class="cls-4" d="M113.46,290.94s-3.85-33,4.58-45.28,9.75,1,9.75,1Z"/><path class="cls-4" d="M113.86,290.94s20.22-26.41,19.25-41.24-8.89-4.12-8.89-4.12Z"/><path class="cls-4" d="M113.87,290.94s25-21.9,27-36.64-7.91-5.79-7.91-5.79Z"/><path class="cls-4" d="M114,290.94s-1.64-33.22,7.59-44.88,9.66,1.67,9.66,1.67Z"/><path class="cls-4" d="M113.21,290.94s6.19-32.68,17.89-41.85,9,3.88,9,3.88Z"/><path class="cls-4" d="M113.89,290.94s27.19-19.17,30.69-33.61-7.26-6.59-7.26-6.59Z"/><path class="cls-4" d="M112.34,289.38s30.43-13.43,36.71-26.91-5.82-7.89-5.82-7.89Z"/><path d="M84.23,243.88c1.59,0,3.84,1.55,4.76,2.3l20.49,40.68C101.86,280,85.29,264,83,252.11c-1-5.34-.35-7.15.15-7.76a1.31,1.31,0,0,1,1.1-.47m0-1c-2.1,0-3.67,2-2.24,9.42,3.11,16,30.67,38.64,30.67,38.64l-22.87-45.4s-3.13-2.66-5.56-2.66Z"/><path d="M102,236.5c1.49,0,3.51,2.65,4.35,4.09l5.42,45.32c-4.85-9.21-15-30.27-13.1-42.17,1-6.53,2.68-7.24,3.33-7.24m0-1c-1.67,0-3.34,1.9-4.32,8.09-2.53,16,15.69,47.35,15.69,47.35l-6.05-50.67s-2.67-4.77-5.32-4.77Z"/><path d="M77.55,247.6h0a9.84,9.84,0,0,1,4.11,1.6l27.11,37.69c-8.39-6-25.47-19.26-30.3-30.73-2.52-6-2.06-7.76-1.74-8.24.07-.1.22-.32.82-.32m0-1c-2.08,0-3.36,2,0,10C84.19,272.32,113,291,113,291l-30.6-42.52s-2.79-1.88-4.81-1.87Z"/><path d="M91.23,239.6h0c1.44,0,3.59,1.87,4.7,3.15l13.65,43.59c-6.43-8.08-20.21-26.76-20.56-38.88-.15-5.18.75-6.9,1.3-7.47a1.19,1.19,0,0,1,.91-.39m0-1c-1.85,0-3.41,2-3.21,8.89.47,16.28,24,43.45,24,43.45L96.83,242.26s-3.08-3.66-5.6-3.66Z"/><path d="M113.45,235.44h0c1.57,0,3.09,3.31,3.65,5.08l-4.8,45.16c-2.69-10.09-7.91-33-3.41-44,2.27-5.6,4-6.2,4.56-6.2m0-1c-1.54,0-3.4,1.68-5.49,6.82-6,14.86,4.78,49.68,4.78,49.68l5.38-50.51s-1.76-6-4.67-6Z"/><path d="M119,235.93c.65,0,2.34.69,4,7,3,11.74-5,33.41-8.95,42.9l1-45.61c.72-1.52,2.5-4.33,4-4.33m0-1c-2.71,0-5,5.1-5,5.1l-1.1,50.91S128,258.5,124,242.72c-1.54-5.94-3.32-7.79-4.95-7.79Z"/><path d="M128.41,238.47c1.15,0,1.77,1.54,2.08,2.84a16.15,16.15,0,0,1,.41,3.22l-17.44,41.33c.28-10.38,1.76-33.81,9.23-42.89,3.21-3.91,5-4.5,5.72-4.5m0-1c-1.47,0-3.55,1.27-6.5,4.86-10,12.19-9.51,48.61-9.51,48.61l19.5-46.21s0-7.26-3.49-7.26Z"/><path d="M133.9,240.62a1.32,1.32,0,0,1,1,.43c.56.58,1.48,2.34,1.3,7.59-.42,12.11-14.36,30.17-20.81,37.9l13.92-43c.83-.89,3-2.9,4.59-2.9m0-1c-2.49,0-5.48,3.39-5.48,3.39l-15.5,47.93s23.72-26,24.28-42.26c.24-7.06-1.38-9.06-3.3-9.06Z"/><path d="M142.54,246.13a1.45,1.45,0,0,1,1.28.54c.51.63,1.18,2.49,0,7.82-2.68,11.76-19.84,26.52-27.62,32.71L138,248c.89-.63,3-1.91,4.59-1.91m0-1c-2.38,0-5.36,2.23-5.36,2.23l-24.25,43.58s28.23-20.48,31.83-36.23c1.74-7.62,0-9.58-2.22-9.58Z"/><path class="cls-3" d="M113.35,289s-12.52,36.77,0,85.28,5.48,92.31,5.48,92.31"/><ellipse cx="112.57" cy="288.25" rx="4.3" ry="3.52"/><path class="cls-4" d="M53.41,213.63s-31.55-36-31.55-57.46,12.4-6.76,12.4-6.76Z"/><path class="cls-4" d="M55.29,213.63s-23.81-41.57-19.58-62.55,13.48-4.18,13.48-4.18Z"/><path class="cls-4" d="M55.76,213.63s-16.54-45-8.87-64.94,14-1.87,14-1.87Z"/><path class="cls-4" d="M54.53,213.63S16,185.18,11.4,164.28,22.05,155,22.05,155Z"/><path class="cls-4" d="M53,213.63s-31.4-36.17-31.32-57.58,12.42-6.71,12.42-6.71Z"/><path class="cls-4" d="M53.67,213.63s-24.93-40.9-21.28-62,13.36-4.55,13.36-4.55Z"/><path class="cls-4" d="M54.7,213.63s-5.55-47.58,6.59-65.21,14,1.45,14,1.45Z"/><path class="cls-4" d="M55.27,213.63s29.12-38,27.72-59.39-12.81-5.94-12.81-5.94Z"/><path class="cls-4" d="M55.29,213.63s36.05-31.55,38.89-52.76-11.39-8.35-11.39-8.35Z"/><path class="cls-4" d="M55.53,213.63S53.17,165.79,66.46,149s13.91,2.39,13.91,2.39Z"/><path class="cls-4" d="M54.33,213.63s8.92-47.07,25.76-60.27,13,5.58,13,5.58Z"/><path class="cls-4" d="M55.31,213.63s39.15-27.6,44.2-48.41-10.45-9.49-10.45-9.49Z"/><path class="cls-4" d="M53.07,211.38S96.9,192,105.94,172.63s-8.37-11.36-8.37-11.36Z"/><path d="M12.6,144.42v1h0c2.46,0,5.89,2.39,7.21,3.46l30.58,60.73c-10-8.78-36.49-33.57-40-51.82-1.44-7.46-.62-10.39.32-11.54a2.3,2.3,0,0,1,1.92-.83v-1m0,0c-3,0-5.29,2.86-3.22,13.56,4.46,23.05,44.15,55.65,44.15,55.65L20.61,148.25s-4.52-3.83-8-3.83Z"/><path d="M38.23,134.79h0c2.57,0,5.61,4.31,6.69,6.18L53,208.67c-6.41-11.92-22.89-44.85-20-63.08,1.11-7,3-10.8,5.23-10.8m0-1c-2.4,0-4.8,2.73-6.21,11.64-3.65,23,22.59,68.2,22.59,68.2l-8.72-73s-3.84-6.86-7.66-6.86Z"/><path d="M3,150.77H3c2,0,5.06,1.67,6.24,2.43l40.63,56.47c-11.07-7.76-38.5-28.29-45.94-45.95C.32,155.2.82,152.36,1.43,151.44A1.62,1.62,0,0,1,3,150.77m0-1c-3,0-4.83,2.84,0,14.34,9.56,22.71,51,49.59,51,49.59L9.91,152.47s-4-2.7-6.94-2.7Z"/><path d="M22.69,139.25h0c2.49,0,5.89,3.31,7.16,4.77l20.38,65.07C41.77,198.66,19.6,169.58,19.06,151c-.21-7.24,1-10,2-11.07a2.16,2.16,0,0,1,1.64-.71m0-1c-2.68,0-4.92,2.87-4.63,12.81.68,23.44,34.63,62.57,34.63,62.57L30.74,143.52s-4.43-5.27-8-5.27Z"/><path d="M54.68,133.26h0c2.72,0,5,5.52,5.7,7.72l-7.17,67.46c-3.61-13.1-12.39-49.05-5.51-66,3.26-8,5.77-9.2,7-9.2m0-1c-2.21,0-4.89,2.42-7.91,9.83-8.69,21.39,6.89,71.54,6.89,71.54l7.74-72.75s-2.54-8.62-6.72-8.62Z"/><path d="M62.68,134c1.29,0,3.8,1.36,6.16,10.46,4.66,18-8.58,51.91-13.8,64.19l1.46-68.07c.89-1.89,3.62-6.58,6.18-6.58m0-1c-3.89,0-7.17,7.35-7.17,7.35l-1.58,73.31s21.76-46.72,15.88-69.45C67.6,135.64,65,133,62.68,133Z"/><path d="M76.22,136.63v1c2,0,2.94,2.41,3.43,4.43a24.94,24.94,0,0,1,.6,4.82l-26,61.72c.25-13.48,2-50.43,13.44-64.34,4.5-5.48,7.15-6.63,8.58-6.63v-1m0,0c-2.11,0-5.1,1.83-9.35,7-14.43,17.55-13.7,70-13.7,70l28.08-66.55s0-10.45-5-10.45Z"/><path d="M84.13,140.73a2.29,2.29,0,0,1,1.75.75c1.05,1.08,2.25,3.92,2,11.25-.64,18.55-23,46.6-31.51,56.56l20.76-64.17c1.23-1.36,4.53-4.39,7-4.39m0-1c-3.59,0-7.89,4.88-7.89,4.88l-22.33,69s34.17-37.46,35-60.87c.35-10.16-2-13-4.75-13Z"/><path d="M96.57,148.65a2.6,2.6,0,0,1,2.19.95c.95,1.19,1.73,4.18,0,11.64-4.11,18-31.5,40.77-41.66,48.7l32.49-58.39c.79-.56,4.25-2.9,6.95-2.9m0-1c-3.43,0-7.72,3.22-7.72,3.22L53.93,213.63s40.66-29.49,45.83-52.17c2.51-11,0-13.81-3.19-13.81Z"/><path class="cls-3" d="M54.54,210.88s-18,52.95,0,122.8,7.88,132.94,7.88,132.94"/><ellipse cx="53.41" cy="209.76" rx="6.2" ry="5.07"/></g></g></svg>