<svg xmlns="http://www.w3.org/2000/svg" viewBox="-20 -200 2000 1000"><defs><style>.cls-1{fill:#c1c9e7;}.cls-2,.cls-5{fill:none;stroke-miterlimit:10;}.cls-2{stroke:#000;}.cls-3{fill:#2c6e49;}.cls-4{fill:#c14953;}.cls-5{stroke:#f4ac45;}.cls-6{fill:#f4ac45;}</style></defs><title>Asset 1</title><g id="Layer_2" data-name="Layer 2"><g id="Layer_1-2" data-name="Layer 1"><path class="cls-1" d="M330,529.58C392.62,493,432,421.57,441.38,360c9.59-62.54-25.48-98.89-69.47-124.56C343,218.58,313,197.23,307.71,160.91c-5.84-39.84,33.06-86,30-125.2C335.25,5.37,300.61-5.31,265,2.42,120.84,33.69-4.13,190.47.1,309.66,3.1,394,45.44,463,106.48,506.71c42.55,30.45,99.82,57.81,169.46,43.67A176.72,176.72,0,0,0,330,529.58Z"/><path class="cls-2" d="M129.67,524.28S96.75,385,110.85,300c16.49-99.48,49.07-183.91,114.38-269.39"/><path class="cls-3" d="M149.45,145.41s-27.67-28.06-19.75-80.92S155,70.66,149.45,145.41Z"/><path class="cls-3" d="M124.5,208.47s-31.76-23.33-32.3-76.78S118.11,133.79,124.5,208.47Z"/><path class="cls-3" d="M99.8,286.32s-30.57-24.86-28.48-78.27S97.1,211.42,99.8,286.32Z"/><path class="cls-3" d="M100,375.6s-35.34-17.44-45.18-70S80.65,303.17,100,375.6Z"/><path class="cls-3" d="M106.18,453.79s-37.1-13.28-52.9-64.34S78.71,384.05,106.18,453.79Z"/><path class="cls-3" d="M160.48,153.87s39.36,1.8,73.36-39.44S212.36,99.78,160.48,153.87Z"/><path class="cls-3" d="M136.05,217.79s39.36,2,73.53-39.12S188.17,163.92,136.05,217.79Z"/><path class="cls-3" d="M121.2,294.26s39.19-4.15,66.57-50S164.33,233,121.2,294.26Z"/><path class="cls-3" d="M117.5,378.32s38.43-8.74,60.22-57.54S153.12,312.37,117.5,378.32Z"/><path class="cls-3" d="M120.18,452.49s38.59-7.95,61.38-56.3S157.14,387.28,120.18,452.49Z"/><path d="M134.88,40.51a2.36,2.36,0,0,1,1.46.87c6.42,6.91,13.1,46.88,9.72,96.83a79.87,79.87,0,0,1-11.14-18.67c-5.33-12.29-10.84-32.62-6.79-59.64,2.76-18.45,6.1-19.39,6.75-19.39m0-1c-2.85,0-5.63,6.14-7.74,20.24-7.92,52.86,19.75,80.92,19.75,80.92,4-54.81-4.21-101.16-12-101.16Z"/><path d="M94.4,105.72v1c2.69,0,8.22,8.77,14,28s10.14,42.85,12.32,66.67a79.4,79.4,0,0,1-14-16.67c-7.21-11.3-15.86-30.5-16.14-57.82-.15-14.55,1.73-18.64,2.86-19.78a1.19,1.19,0,0,1,.9-.44v-1m0,0c-3,0-4.91,6.44-4.76,21.23.54,53.45,32.3,76.78,32.3,76.78-4.62-54-19.73-98-27.54-98Z"/><path d="M74.46,183.33h0c2.66,0,7.75,8.91,12.61,28.47s8.07,43.42,9.08,67.43A79.19,79.19,0,0,1,83,261.89c-6.64-11.64-14.34-31.24-13.27-58.54.75-19,4-20,4.7-20m0-1c-2.93,0-5.12,6.37-5.7,21-2.09,53.41,28.48,78.28,28.48,78.28-2-54.41-15-99.26-22.78-99.26Z"/><path d="M53.58,280.11h0c2.94,0,9.92,8,18.88,26s17.15,40,23.34,62.7a79.6,79.6,0,0,1-16.64-14c-9.07-9.87-20.94-27.27-26-54.12-2.86-15.28-1.31-19.17-.51-20.13a1.09,1.09,0,0,1,.9-.46m0-1c-3.25,0-4.21,6.61-1.37,21.77,9.84,52.54,45.18,70,45.18,70-13.73-51.53-35.77-91.75-43.81-91.75Z"/><path d="M49.89,362.91v1c2.86,0,10.32,6.34,21.91,24.23,10.75,16.61,21.36,37.5,30,59.05a78.82,78.82,0,0,1-18.06-11.92c-10.17-8.76-24-24.7-32.07-50.85-4.68-15.11-3.49-19-2.76-20a1.1,1.1,0,0,1,1-.48v-1m0,0c-3.52,0-3.86,6.63.83,21.8,15.8,51.06,52.9,64.34,52.9,64.34-19.31-49-45.41-86.15-53.73-86.14Z"/><path d="M238.69,90.56c1.53,0,1.79.57,1.88.75.39.83.82,4.55-10.06,17.74C217.45,124.9,202.13,136.22,185,142.7a80.81,80.81,0,0,1-24.67,5.41C195,112.4,229.15,90.56,238.69,90.56m0-1c-10.49,0-46.42,23.76-80.77,59.57h.74c5.55,0,41.36-1.52,72.62-39.45,11.49-13.94,12.76-20.13,7.41-20.13Z"/><path d="M214.48,154.83c1,0,1.68.26,1.91.76.39.83.8,4.54-10.14,17.7C177.42,208,145.16,211.71,135.87,212c34.76-35.49,69-57.21,78.61-57.21m0-1c-10.53,0-46.52,23.59-81,59.22,0,0,.3,0,.88,0,6,0,41.47-1.65,72.65-39.14,11.57-13.91,12.85-20.1,7.46-20.1Z"/><path d="M190.34,219.38c.89,0,1.19.35,1.34.6.58,1,1,5-7.32,19-14,23.46-31.15,35.69-43.07,41.81a79.66,79.66,0,0,1-20.45,7.38c29.53-41.42,61.22-68.77,69.5-68.77m0-1c-9.38,0-42.32,29.4-71.7,71.15,0,0,39.19-4.16,66.57-50.06,8.74-14.64,9.52-21.09,5.13-21.09Z"/><path d="M178.23,295.47a1.16,1.16,0,0,1,1.11.53c.65,1,1.47,4.95-5.09,19.63-11.14,24.95-26.73,39.11-37.85,46.6A79.27,79.27,0,0,1,117,372c24.4-44.5,53.36-76.49,61.27-76.49m0-1c-8.76,0-38.61,33.42-63.29,79.11,0,0,38.43-8.73,60.22-57.54,6.7-15,7-21.57,3.07-21.57Z"/><path d="M182.44,371a1.18,1.18,0,0,1,1.14.53c.64,1,1.39,4.95-5.48,19.54-11.65,24.72-27.53,38.56-38.79,45.81a78.82,78.82,0,0,1-19.64,9.33C144.84,402.4,174.45,371,182.44,371m0-1c-8.86,0-39.29,32.75-64.82,77.8,0,0,38.59-7.95,61.38-56.3,7.05-14.94,7.4-21.5,3.44-21.5Z"/><circle class="cls-4" cx="293.14" cy="226.24" r="6.37"/><circle class="cls-5" cx="293.14" cy="224.96" r="6.37"/><path class="cls-4" d="M284.37,207.6s-13-24-14-38,5-1,14-6,10-13,13-8,2,12,9,8,16-3,15,2-13,39-17,42S284.37,207.6,284.37,207.6Z"/><path class="cls-4" d="M306.5,212.23s19.08-19.51,32.16-24.61,2.43,4.48,9.87,11.6,15.37,5.7,11.49,10.05-10.87,5.46-5,11,7.6,14.4,2.52,14.92-41.1-.88-45.15-3.81S306.5,212.23,306.5,212.23Z"/><path class="cls-4" d="M316.41,241.16s19.3,19.29,24.25,32.43-4.5,2.38-11.7,9.74-5.88,15.31-10.18,11.38-5.34-10.93-10.91-5.1-14.48,7.44-14.95,2.36,1.34-41.09,4.32-45.1S316.41,241.16,316.41,241.16Z"/><path class="cls-4" d="M288.6,248.18s-5.81,26.67-14.19,37.93-4.44-2.51-14.53-4.6-16.06,3.32-15.07-2.42,6.32-10.4-1.59-11.94-14.08-8.17-10.06-11.3,35.3-21.06,40.29-20.73S288.6,248.18,288.6,248.18Z"/><path class="cls-4" d="M269.49,231.08s-26.75,5.43-40.43,2.31.5-5.08-1.66-15.15-9.51-13.35-3.86-14.76,12.07,1.58,10.28-6.28,1.8-16.18,6.29-13.76,33.51,23.81,35.21,28.51S269.49,231.08,269.49,231.08Z"/><path class="cls-6" d="M297.55,152s.32,0,1,1.09a21.27,21.27,0,0,1,1.78,4.28c.88,2.65,1.8,5.4,4.65,5.4a8.29,8.29,0,0,0,3.92-1.32,17.57,17.57,0,0,1,8.45-2.34c2.18,0,3.93.56,4.7,1.49a2,2,0,0,1,.38,1.78c-1.07,5.34-13,38.71-16.62,41.4-.69.52-2.36,1.13-6.37,1.13A81.86,81.86,0,0,1,287,203.7c-1.72-3.26-12.75-24.55-13.66-37.17-.29-4.17.12-5.28.39-5.57,0,0,.08-.09.28-.09a8.06,8.06,0,0,1,2.18.64,15.47,15.47,0,0,0,5.64,1.3,10.19,10.19,0,0,0,5-1.34,30,30,0,0,0,8.43-7.28c.83-1,1.86-2.17,2.27-2.17m0-1c-2,0-4.19,5.69-11.18,9.58a9.2,9.2,0,0,1-4.52,1.21c-3.45,0-6.17-1.94-7.82-1.94-1.42,0-2,1.43-1.66,6.73,1,14,14,38,14,38a84.45,84.45,0,0,0,13,1.33c3,0,5.63-.33,7-1.33,4-3,16-37,17-42,.58-2.91-2.23-4.47-6.06-4.47a18.58,18.58,0,0,0-8.94,2.47,7.3,7.3,0,0,1-3.43,1.19c-3.33,0-3.19-5.23-5.57-9.19-.67-1.11-1.24-1.58-1.82-1.58Z"/><path class="cls-6" d="M345.93,184.18h0a.9.9,0,0,1,.6.14,5.56,5.56,0,0,1,.12,2.46c-.17,2.67-.42,6.7,3.19,10.16a29.79,29.79,0,0,0,9.44,5.89c1.13.49,2.67,1.16,2.76,1.53,0,0,0,.32-.77,1.24a21.77,21.77,0,0,1-3.55,3c-2,1.4-3.82,2.73-4,4.73-.09,1.45.73,2.93,2.58,4.66,4.07,3.8,5.87,9.11,5,11.69a2.05,2.05,0,0,1-1.89,1.51c-.45,0-1.44.1-3.59.1-12.23,0-37.89-1.58-40.87-3.73s-4.87-13.23-5.45-17.94c2.6-2.6,19.68-19.44,31.47-24a16.23,16.23,0,0,1,4.91-1.37m0-1a16.63,16.63,0,0,0-5.27,1.44c-13.08,5.1-32.16,24.61-32.16,24.61s1.87,16.18,5.91,19.11c3.5,2.53,30.76,3.92,41.46,3.92,1.71,0,3,0,3.69-.11,5.08-.52,3.37-9.41-2.52-14.92s1.09-6.62,5-11-4-2.94-11.49-10.05c-6-5.72-.28-13-4.6-13Z"/><path class="cls-6" d="M318,239.21c2.58,2.62,19.23,19.89,23.7,31.73,1.59,4.22,1.37,5.24,1.2,5.49-.05.08-.26.21-1,.21-.42,0-.93,0-1.47-.08s-1.44-.11-2.25-.11a10.49,10.49,0,0,0-7.94,3.18,30.22,30.22,0,0,0-6,9.38c-.48,1.09-1.22,2.74-1.58,2.74-.06,0-.39,0-1.21-.78a21.33,21.33,0,0,1-2.92-3.59c-1.44-2.06-2.81-4-4.95-4-1.37,0-2.78.8-4.43,2.54-2.87,3-7.06,5.09-10.19,5.09-1.89,0-2.91-.72-3-2.13-.5-5.43,1.45-40.82,4.12-44.42,2.15-2.9,13.29-4.72,18-5.25m.38-1.05s-16.2,1.69-19.17,5.71-4.78,40-4.32,45.1c.2,2.09,1.81,3,4,3,3.19,0,7.63-2,10.91-5.4,1.53-1.6,2.71-2.23,3.71-2.23,2.67,0,4.07,4.47,7.2,7.33a3.13,3.13,0,0,0,1.88,1c2.22,0,2.42-6.41,8.3-12.42a9.49,9.49,0,0,1,7.22-2.88c1.42,0,2.71.19,3.72.19,2.25,0,3.07-.94.76-7.05-5-13.14-24.25-32.43-24.25-32.43Z"/><path class="cls-6" d="M275.3,233.12h.08c3.61.25,11.15,8.64,14.14,12.31-.82,3.59-6.36,26.93-13.92,37.08-2.67,3.59-3.66,4-4,4s-1-1.12-1.47-2c-1.27-2.35-3.19-5.9-8.08-6.92a25.79,25.79,0,0,0-5.21-.52,38.23,38.23,0,0,0-5.93.54,19,19,0,0,1-2.46.28c-.58,0-.68-.12-.69-.12s-.21-.26,0-1.45a21,21,0,0,1,1.44-4.4c.92-2.23,1.78-4.34.83-6.11-.69-1.27-2.17-2.09-4.66-2.58-5.46-1.06-9.8-4.61-10.44-7.26a2.06,2.06,0,0,1,.8-2.27c4.6-3.59,34.65-20.52,39.53-20.52m0-1c-5.42,0-36.16,17.62-40.14,20.73s2.14,9.76,10.06,11.3,2.58,6.19,1.59,11.94c-.37,2.16.24,2.74,1.68,2.74,1.71,0,4.59-.82,8.39-.82a24.74,24.74,0,0,1,5,.5c7.22,1.5,7.25,9,9.76,9,1,0,2.39-1.17,4.77-4.37,8.38-11.26,14.19-37.93,14.19-37.93s-10.16-12.72-15.15-13.06Z"/><path class="cls-6" d="M240.54,181h0a2.39,2.39,0,0,1,1.1.31c4.79,2.58,33.22,23.75,34.74,28,1.23,3.4-3.4,13.69-5.56,17.9-2.74.53-17,3.17-29.07,3.17a48.18,48.18,0,0,1-10.47-1c-4.44-1-5.14-1.76-5.24-2s.65-1.34,1.27-2.14c1.64-2.12,4.12-5.31,3.07-10.2a30.22,30.22,0,0,0-4.5-10.18c-.66-1-1.56-2.45-1.42-2.81,0,0,.13-.3,1.33-.59a21.06,21.06,0,0,1,4.6-.46c2.42-.06,4.69-.12,5.92-1.7.9-1.15,1.05-2.83.49-5.31-1.12-4.92,0-9.63,1.7-11.74a2.81,2.81,0,0,1,2-1.23m0-1c-3.7,0-6.29,7.27-4.72,14.19,1.79,7.86-4.62,4.87-10.28,6.28s1.71,4.7,3.86,14.76-12,12,1.66,15.15a49.56,49.56,0,0,0,10.69,1c13.61,0,29.74-3.28,29.74-3.28S279,213.65,277.32,209s-30.72-26.1-35.21-28.51a3.29,3.29,0,0,0-1.57-.43Z"/><circle class="cls-4" cx="254.81" cy="366.96" r="4.65"/><circle class="cls-5" cx="254.81" cy="366.03" r="4.65"/><path class="cls-4" d="M248.4,353.35s-9.49-17.53-10.22-27.76,3.65-.73,10.22-4.38,7.31-9.5,9.5-5.85,1.46,8.77,6.57,5.85,11.69-2.19,11,1.46-9.5,28.48-12.42,30.68S248.4,353.35,248.4,353.35Z"/><path class="cls-4" d="M264.57,356.73s13.94-14.26,23.49-18,1.78,3.27,7.21,8.47,11.23,4.17,8.39,7.34-7.94,4-3.64,8,5.55,10.52,1.85,10.9-30-.64-33-2.79S264.57,356.73,264.57,356.73Z"/><path class="cls-4" d="M271.81,377.86s14.1,14.09,17.71,23.68-3.29,1.74-8.55,7.12-4.29,11.18-7.43,8.31-3.9-8-8-3.73S255,418.68,254.65,415s1-30,3.15-32.94S271.81,377.86,271.81,377.86Z"/><path class="cls-4" d="M251.5,383s-4.25,19.48-10.37,27.71-3.24-1.83-10.61-3.36-11.73,2.43-11-1.77,4.62-7.59-1.16-8.72-10.29-6-7.35-8.25,25.79-15.39,29.43-15.14S251.5,383,251.5,383Z"/><path class="cls-4" d="M237.54,370.5s-19.54,4-29.53,1.68.36-3.71-1.21-11.06-7-9.76-2.82-10.79,8.81,1.16,7.51-4.58,1.31-11.82,4.59-10.05,24.48,17.39,25.72,20.82S237.54,370.5,237.54,370.5Z"/><path class="cls-6" d="M258,313a2.4,2.4,0,0,1,.49.65,15.31,15.31,0,0,1,1.28,3.07c.68,2,1.37,4.12,3.65,4.12a6.17,6.17,0,0,0,3-1,12.61,12.61,0,0,1,6-1.67,4.33,4.33,0,0,1,3.23,1,1.21,1.21,0,0,1,.22,1.08c-.76,3.8-9.54,28.2-12,30.07-.38.29-1.48.78-4.48.78a58,58,0,0,1-8.87-.88c-1.43-2.72-9.24-17.9-9.88-26.92-.22-3,.08-3.71.19-3.85h0a6,6,0,0,1,1.5.45,11.35,11.35,0,0,0,4.21,1,7.74,7.74,0,0,0,3.79-1,22,22,0,0,0,6.23-5.38A9.16,9.16,0,0,1,258,313m0-1c-1.48,0-3.06,4.16-8.16,7a6.74,6.74,0,0,1-3.31.88c-2.51,0-4.5-1.42-5.71-1.42-1,0-1.49,1-1.21,4.92.73,10.22,10.23,27.75,10.23,27.75a61.12,61.12,0,0,0,9.52,1c2.16,0,4.11-.25,5.08-1,2.93-2.19,11.69-27,12.42-30.67.43-2.13-1.63-3.27-4.43-3.27a13.63,13.63,0,0,0-6.53,1.81,5.31,5.31,0,0,1-2.5.86c-2.43,0-2.33-3.81-4.07-6.71-.49-.81-.9-1.15-1.33-1.15Z"/><path class="cls-6" d="M293.37,336.51h0a.8.8,0,0,1,.24,0,5.69,5.69,0,0,1,0,1.58c-.13,2-.32,5,2.41,7.63a21.88,21.88,0,0,0,7,4.36,9.11,9.11,0,0,1,1.83.93,2.86,2.86,0,0,1-.47.67,15.76,15.76,0,0,1-2.56,2.12c-1.48,1.07-2.89,2.07-3,3.66-.07,1.15.55,2.3,2,3.62,2.89,2.7,4.18,6.45,3.58,8.26a1.22,1.22,0,0,1-1.15.91,25.37,25.37,0,0,1-2.6.08c-8.9,0-27.56-1.13-29.69-2.68-1.83-1.32-3.3-8.34-3.86-12.78,2.17-2.17,14.37-14.12,22.8-17.41a11.87,11.87,0,0,1,3.49-1m0-1a12.17,12.17,0,0,0-3.85,1.05c-9.55,3.72-23.49,18-23.49,18s1.36,11.81,4.32,13.95c2.55,1.85,22.46,2.87,30.28,2.87,1.25,0,2.19,0,2.7-.08,3.7-.38,2.46-6.88-1.85-10.9s.8-4.83,3.64-8-3-2.14-8.39-7.34c-4.37-4.18-.2-9.52-3.36-9.52Z"/><path class="cls-6" d="M272.89,376.71c2.15,2.2,14,14.53,17.16,23,1.07,2.84,1,3.58.92,3.75a2.39,2.39,0,0,1-.55.05c-.29,0-.66,0-1-.05s-1.07-.08-1.67-.08a7.92,7.92,0,0,0-6,2.4,22.34,22.34,0,0,0-4.44,6.93,8.12,8.12,0,0,1-.95,1.82,2.61,2.61,0,0,1-.65-.48,15.29,15.29,0,0,1-2.1-2.58c-1.1-1.56-2.13-3-3.83-3h0c-1.09,0-2.18.62-3.44,1.94a11.22,11.22,0,0,1-7.25,3.64c-1.83,0-1.92-1-1.95-1.31-.35-3.86,1.1-29.76,3-32.26,1.34-1.81,8.38-3.21,12.82-3.72m.38-1s-11.83,1.23-14,4.16-3.5,29.24-3.15,32.95c.14,1.52,1.32,2.22,2.94,2.22,2.33,0,5.58-1.44,8-3.95,1.12-1.16,2-1.63,2.72-1.63,1.94,0,3,3.27,5.25,5.36a2.31,2.31,0,0,0,1.38.76c1.62,0,1.76-4.68,6.05-9.07a7,7,0,0,1,5.28-2.1c1,0,2,.13,2.71.13,1.65,0,2.25-.68.56-5.15-3.61-9.59-17.71-23.68-17.71-23.68Z"/><path class="cls-6" d="M241.79,371.25l0,1c2.26.15,7.23,5.32,10.06,8.78-.69,3-4.69,19.6-10.09,26.86-1.82,2.44-2.49,2.75-2.66,2.79a5.57,5.57,0,0,1-.85-1.34c-1-1.76-2.4-4.42-6.09-5.19a19.15,19.15,0,0,0-3.86-.39,27.56,27.56,0,0,0-4.37.4,13.46,13.46,0,0,1-1.76.2,1.57,1.57,0,0,1-.29,0,2.53,2.53,0,0,1,.05-.81,15.39,15.39,0,0,1,1-3.16c.69-1.69,1.35-3.29.59-4.69-.54-1-1.68-1.65-3.59-2-3.88-.75-7-3.25-7.41-5.1a1.23,1.23,0,0,1,.49-1.39c3-2.34,25.21-14.93,28.71-14.93v-1m0,0c-4,0-26.42,12.88-29.33,15.14s1.57,7.14,7.35,8.26,1.89,4.52,1.17,8.72c-.28,1.58.17,2,1.22,2,1.25,0,3.35-.6,6.13-.6a18.14,18.14,0,0,1,3.65.37c5.27,1.09,5.3,6.55,7.13,6.55.73,0,1.74-.86,3.48-3.19,6.12-8.23,10.37-27.71,10.37-27.71s-7.42-9.28-11.07-9.53Z"/><path class="cls-6" d="M216.39,334.2h0a1.43,1.43,0,0,1,.68.19c3.41,1.83,24.19,17.35,25.25,20.28.77,2.12-2,8.76-4,12.75a128.22,128.22,0,0,1-21.05,2.28,34.64,34.64,0,0,1-7.59-.69c-3-.67-3.52-1.16-3.62-1.3a5.72,5.72,0,0,1,.87-1.32c1.23-1.59,3.09-4,2.3-7.67a22.31,22.31,0,0,0-3.33-7.53,8.5,8.5,0,0,1-1-1.79,2.34,2.34,0,0,1,.76-.29,15.35,15.35,0,0,1,3.31-.32c1.83-.05,3.55-.09,4.53-1.35.7-.91.83-2.21.4-4.1-.79-3.51,0-6.86,1.19-8.35a1.83,1.83,0,0,1,1.28-.79m0-1c-2.7,0-4.59,5.31-3.44,10.36,1.3,5.74-3.38,3.55-7.51,4.58s1.24,3.44,2.82,10.79-8.79,8.77,1.21,11.06a36.22,36.22,0,0,0,7.81.71A129.81,129.81,0,0,0,239,368.31s5.5-10.54,4.26-14-22.44-19.06-25.72-20.82a2.32,2.32,0,0,0-1.15-.31Z"/><circle class="cls-4" cx="353.15" cy="346.52" r="3.26"/><circle class="cls-5" cx="353.15" cy="345.87" r="3.26"/><path class="cls-4" d="M348.65,337s-6.65-12.29-7.16-19.45,2.56-.51,7.16-3.07,5.12-6.66,6.66-4.1,1,6.15,4.6,4.1,8.19-1.54,7.68,1-6.65,20-8.7,21.5S348.65,337,348.65,337Z"/><path class="cls-4" d="M360,339.35s9.77-10,16.46-12.6,1.25,2.3,5.06,5.94,7.87,2.92,5.88,5.14-5.57,2.8-2.55,5.62,3.89,7.36,1.29,7.63-21-.45-23.11-1.95S360,339.35,360,339.35Z"/><path class="cls-4" d="M365.05,354.16s9.89,9.87,12.42,16.6-2.31,1.22-6,5-3,7.84-5.21,5.83-2.74-5.6-5.59-2.61-7.41,3.8-7.65,1.2.69-21,2.21-23.08S365.05,354.16,365.05,354.16Z"/><path class="cls-4" d="M350.82,357.75s-3,13.65-7.26,19.41-2.28-1.28-7.44-2.35-8.22,1.7-7.71-1.24,3.23-5.32-.82-6.11-7.21-4.18-5.15-5.78,18.07-10.79,20.63-10.61S350.82,357.75,350.82,357.75Z"/><path class="cls-4" d="M341,349s-13.69,2.78-20.7,1.18.26-2.6-.84-7.75-4.87-6.84-2-7.56,6.18.81,5.26-3.21.92-8.28,3.22-7.05,17.15,12.19,18,14.6S341,349,341,349Z"/><path class="cls-6" d="M355.35,309.14c0,.06.08.12.12.2a10.36,10.36,0,0,1,.87,2.09c.46,1.38,1,3.1,2.84,3.1a4.59,4.59,0,0,0,2.25-.74,8.51,8.51,0,0,1,4.08-1.13,2.75,2.75,0,0,1,2,.58.55.55,0,0,1,.1.51c-.63,3.12-6.71,19.65-8.33,20.89-.19.15-.86.49-3,.49a40.21,40.21,0,0,1-6-.59c-1.15-2.2-6.38-12.48-6.82-18.62a9,9,0,0,1,0-2.34c.2.05.51.17.76.26a8.42,8.42,0,0,0,3.06.7,5.75,5.75,0,0,0,2.8-.74,15.84,15.84,0,0,0,4.45-3.84c.24-.28.53-.62.74-.82m0-1.12c-1,0-2.14,2.91-5.72,4.9a4.68,4.68,0,0,1-2.32.62c-1.76,0-3.15-1-4-1s-1,.73-.85,3.44c.51,7.17,7.17,19.45,7.17,19.45a42.68,42.68,0,0,0,6.67.69,6.52,6.52,0,0,0,3.56-.69c2-1.53,8.19-18.93,8.71-21.49.29-1.5-1.14-2.29-3.11-2.29a9.54,9.54,0,0,0-4.57,1.26,3.67,3.67,0,0,1-1.76.61c-1.7,0-1.63-2.67-2.85-4.7-.34-.57-.63-.81-.93-.81Z"/><path class="cls-6" d="M380.08,325.49c0,.21,0,.54,0,.8a6.48,6.48,0,0,0,1.78,5.59,15.94,15.94,0,0,0,5,3.11c.34.15.75.32,1,.46l-.16.18a10.23,10.23,0,0,1-1.74,1.45c-1.05.75-2.14,1.53-2.22,2.79a3.77,3.77,0,0,0,1.48,2.77c1.91,1.79,2.81,4.32,2.43,5.47a.57.57,0,0,1-.56.44c-.18,0-.65.05-1.79.05-6.8,0-19.26-.85-20.63-1.82-1.12-.81-2.14-5.36-2.56-8.6,1.76-1.76,10-9.8,15.77-12a8.57,8.57,0,0,1,2.25-.66m.08-1a8.31,8.31,0,0,0-2.69.74c-6.7,2.61-16.46,12.6-16.46,12.6s.95,8.27,3,9.77c1.79,1.3,15.75,2,21.22,2,.88,0,1.54,0,1.89-.05,2.6-.27,1.73-4.82-1.29-7.64s.56-3.39,2.55-5.61-2.07-1.5-5.88-5.15c-3.06-2.93-.14-6.67-2.36-6.67Z"/><path class="cls-6" d="M365.7,353.67c1.74,1.78,9.69,10.14,11.86,15.9a9.08,9.08,0,0,1,.64,2.26h-.1c-.21,0-.45,0-.71,0s-.76-.06-1.19-.06a5.82,5.82,0,0,0-4.41,1.78,15.85,15.85,0,0,0-3.17,4.94c-.15.35-.33.75-.47,1l-.18-.16a10.51,10.51,0,0,1-1.43-1.75c-.78-1.11-1.58-2.26-2.93-2.26h0a3.72,3.72,0,0,0-2.62,1.45,7.58,7.58,0,0,1-4.87,2.46c-1,0-1.05-.44-1.07-.65-.29-3.18.82-20.75,2-22.4.83-1.12,5.39-2.09,8.63-2.47m.38-1.05s-8.29.87-9.81,2.92-2.45,20.49-2.21,23.09c.1,1.07.92,1.56,2.06,1.56a8.54,8.54,0,0,0,5.59-2.77,2.85,2.85,0,0,1,1.9-1.14c1.36,0,2.08,2.29,3.68,3.75a1.59,1.59,0,0,0,1,.53c1.13,0,1.23-3.28,4.24-6.35a4.85,4.85,0,0,1,3.7-1.48c.73,0,1.39.1,1.9.1,1.16,0,1.57-.48.39-3.61-2.53-6.72-12.41-16.6-12.41-16.6Z"/><path class="cls-6" d="M344,349.53v1c1.39.09,4.67,3.41,6.74,5.94-.56,2.42-3.31,13.62-7,18.56a8.65,8.65,0,0,1-1.56,1.76c-.12-.18-.28-.47-.4-.7a6.44,6.44,0,0,0-4.47-3.79,13.42,13.42,0,0,0-2.77-.28,19.38,19.38,0,0,0-3.1.28,10.49,10.49,0,0,1-1.09.14,1,1,0,0,1,0-.23,9.68,9.68,0,0,1,.71-2.15c.49-1.2,1-2.44.4-3.55a3.72,3.72,0,0,0-2.72-1.56c-2.57-.5-4.68-2.17-5-3.35a.56.56,0,0,1,.23-.67c2.5-1.95,17.67-10.4,19.94-10.4v-1m0,0c-2.78,0-18.51,9-20.55,10.61s1.09,5,5.14,5.79,1.33,3.16.82,6.11c-.19,1.1.12,1.4.86,1.4s2.35-.42,4.29-.42a12.79,12.79,0,0,1,2.57.26c3.69.76,3.71,4.59,5,4.59.51,0,1.22-.6,2.44-2.24,4.29-5.77,7.27-19.42,7.27-19.42s-5.21-6.5-7.76-6.68Z"/><path class="cls-6" d="M326.22,323.86a.65.65,0,0,1,.33.1c2.81,1.51,16.85,12.14,17.56,14.05.47,1.31-1.24,5.64-2.72,8.56a88,88,0,0,1-14.55,1.57,24.53,24.53,0,0,1-5.25-.47,9.18,9.18,0,0,1-2.23-.71,6,6,0,0,1,.48-.66,6.47,6.47,0,0,0,1.66-5.62,15.94,15.94,0,0,0-2.37-5.37c-.2-.32-.44-.69-.57-.94l.23-.07a10.54,10.54,0,0,1,2.25-.22c1.29,0,2.63-.06,3.4-1.06a3.74,3.74,0,0,0,.34-3.12,7.29,7.29,0,0,1,.78-5.6c.13-.16.39-.44.66-.44m0-1c-1.89,0-3.22,3.72-2.41,7.26.91,4-2.37,2.49-5.26,3.21s.87,2.41,2,7.56-6.16,6.15.85,7.75a25.17,25.17,0,0,0,5.47.5,90.62,90.62,0,0,0,15.22-1.68s3.86-7.38,3-9.79-15.73-13.36-18-14.59a1.7,1.7,0,0,0-.81-.22Z"/></g></g></svg>