<svg xmlns="http://www.w3.org/2000/svg" viewBox="-70 -40 1000 400" ><defs><style>.cls-1{fill:#dd4737;}.cls-2{fill:none;stroke:#db8e3a;stroke-miterlimit:10;}</style></defs><title>Asset 5</title><g id="Layer_2" data-name="Layer 2"><g id="Layer_1-2" data-name="Layer 1"><circle class="cls-1" cx="93.39" cy="105.29" r="8.38"/><circle class="cls-2" cx="93.39" cy="103.62" r="8.38"/><path class="cls-1" d="M92.55,87.69S77.46,17.28,100.93,5.54l57,6.71L106,87.69Z"/><path class="cls-1" d="M114.22,96.47S169,49.74,190.49,64.81l21.18,53.34-91.07-9.88Z"/><path class="cls-1" d="M107.43,117.14s70,17,70.33,43.28l-30.83,48.41L101.6,129.22Z"/><path class="cls-1" d="M75.67,87.44,69.3,103s-54.6,13.83-65.46,9.37S8.59,34.53,8.59,34.53,13.68,22.12,75.67,87.44Z"/><path class="cls-1" d="M77.65,117.29l11,12.61S76.78,185,68,192.69.41,153.8.41,153.8-8.43,143.72,77.65,117.29Z"/><path class="cls-2" d="M97.58,82.66S82.49,12.25,106,.51l57,6.71L111,82.66Z"/><path class="cls-2" d="M119.25,91.44S174,44.71,195.52,59.78l21.18,53.34-91.07-9.88Z"/><path class="cls-2" d="M112.46,112.11s70,17,70.32,43.28L152,203.8l-45.33-79.61Z"/><path class="cls-2" d="M80.7,82.41,74.33,97.92s-54.6,13.83-65.46,9.37S13.62,29.5,13.62,29.5,18.71,17.09,80.7,82.41Z"/><path class="cls-2" d="M82.68,112.26l11,12.61S81.8,179.92,73,187.66,5.44,148.77,5.44,148.77-3.4,138.69,82.68,112.26Z"/><circle class="cls-1" cx="57.3" cy="274.3" r="5.14"/><circle class="cls-2" cx="57.3" cy="273.27" r="5.14"/><path class="cls-1" d="M56.79,263.5s-9.26-43.21,5.14-50.41l35,4.11L65,263.5Z"/><path class="cls-1" d="M70.09,268.88s33.62-28.67,46.8-19.42l13,32.73L74,276.13Z"/><path class="cls-1" d="M65.92,281.57s42.94,10.45,43.16,26.55L90.16,337.83,62.34,289Z"/><path class="cls-1" d="M46.43,263.34l-3.9,9.52S9,281.34,2.36,278.61s2.91-47.73,2.91-47.73S8.4,223.26,46.43,263.34Z"/><path class="cls-1" d="M47.65,281.66l6.78,7.74s-7.32,33.78-12.73,38.53S.25,304.06.25,304.06-5.17,297.88,47.65,281.66Z"/><path class="cls-2" d="M59.88,260.41S50.62,217.2,65,210l35,4.12L68.11,260.41Z"/><path class="cls-2" d="M73.18,265.8s33.61-28.68,46.79-19.43l13,32.73L77.09,273Z"/><path class="cls-2" d="M69,278.48s42.93,10.46,43.15,26.56l-18.92,29.7L65.43,285.89Z"/><path class="cls-2" d="M49.52,260.26l-3.91,9.51s-33.51,8.49-40.17,5.75,2.92-47.73,2.92-47.73S11.48,220.18,49.52,260.26Z"/><path class="cls-2" d="M50.74,278.57l6.78,7.74s-7.32,33.78-12.74,38.53S3.34,301,3.34,301-2.09,294.79,50.74,278.57Z"/><circle class="cls-1" cx="187.66" cy="260.16" r="3.27"/><circle class="cls-2" cx="187.66" cy="259.51" r="3.27"/><path class="cls-1" d="M187.33,253.3s-5.88-27.43,3.27-32l22.2,2.62L192.56,253.3Z"/><path class="cls-1" d="M195.78,256.72s21.34-18.21,29.71-12.33l8.25,20.78-35.48-3.85Z"/><path class="cls-1" d="M193.13,264.77s27.26,6.64,27.4,16.87l-12,18.86-17.66-31Z"/><path class="cls-1" d="M180.75,253.2l-2.48,6s-21.27,5.39-25.5,3.66,1.85-30.31,1.85-30.31S156.6,227.75,180.75,253.2Z"/><path class="cls-1" d="M181.53,264.83l4.3,4.91s-4.65,21.45-8.08,24.47-26.32-15.15-26.32-15.15S148,275.13,181.53,264.83Z"/><path class="cls-2" d="M189.29,251.34s-5.88-27.43,3.27-32l22.2,2.62-20.24,29.39Z"/><path class="cls-2" d="M197.74,254.76s21.34-18.21,29.71-12.33l8.25,20.78-35.48-3.85Z"/><path class="cls-2" d="M195.09,262.82s27.26,6.63,27.4,16.86l-12,18.86-17.66-31Z"/><path class="cls-2" d="M182.71,251.24l-2.48,6s-21.27,5.39-25.5,3.66,1.85-30.31,1.85-30.31S158.56,225.79,182.71,251.24Z"/><path class="cls-2" d="M183.49,262.87l4.3,4.91s-4.65,21.45-8.08,24.47-26.32-15.15-26.32-15.15S150,273.17,183.49,262.87Z"/></g></g></svg>